<?xml version="1.0" encoding="UTF-8"?>
<svg fill="#8E66DE" version="1.1" viewBox="0 0 2048 1961" width="80" height="80" xmlns="http://www.w3.org/2000/svg">
<path transform="translate(999)" d="m0 0h53l27 3 23 6 27 10 17 8 24 14 16 11 13 10 13 11 12 11 19 19 9 11 12 14 13 18 12 18 15 25 8 14 8 16 13 28 12 30 13 37 10 35 8 34 8 43 4 28 4 46 2 38 1 32v57l-3 57 20 1 15 4 17 7 13 3 16 2 10 5 8 6 5 2 23 3 7 3 1 3v19l16-6 16-5 7 1 2 4-2 10-6 11-12 16-7 10 17-7 32-16 13-5h6l1 4-8 8-17 13-15 13-8 7-10 9-12 11-24 24v2l9-3 18-12 19-14 21-14 24-14 16-8 11-5 6-2h9l3 2-1 8-11 12-14 11-4 2v2l13-5 23-6 9-2h16l5 3 3 6 2 9 3 3 16 2 11 4 6 5 4 7 3 7 2 2 12 3 11 6 7 6 5 10 10 8 10 7 10 10 6 9 10 9 11 8 7 10 9 12 10 11 10 13 14 19 12 17 22 33 12 19 13 24 19 38 15 33 9 21 14 37 12 37 11 40 11 46 6 36 4 31 5 58 3 55v75l-3 33-6 29-7 23-9 21-8 16-11 18-11 15-12 14-19 19-11 9-15 11-19 12-23 12-21 9-22 8-28 8-29 6-36 5-26 2h-48l-38-3-37-5-36-7-29-7-25-7-37-12-34-13-26-11-29-13-42-21-20-11-23-13-28-17-22-14-15-9-7-3h-4l-6 10-11 12-8 6-10 6-8 15-7 7-8 5-14 3-5 6-8 16-8 7-7 1-8-4-6-5-3 7-5 19-3 5-2 2h-7l-5-4-6-11-9-20-4-10-2-1v9l-2 16-2 40-2 9-4-1-3-8-7-38-11-48-7-26v-2h-2l-1 41v86l-2 16-3 3h-5l-3-4-2-12-1-69-1-47-2-34-3-19-5-18 2 25 1 17 1 34v61l-1 30-2 20-5 19-6 14-4 5-4 2h-12l-4-2h-5l-6 7-7 9-10 5-15 3-12 6-6 4-13 4-13 2-12 5-10 5-11 3-17 2-21 7-25 5-27 4-50 5-44 3h-63l-51-4-35-4-49-8-38-8-40-11-28-9-35-12-28-11-29-12-33-15-33-16-16-9-12-6-27-16-19-12-20-14-13-10-13-11-8-7-12-12-9-11-11-15-11-18-13-27-7-20-6-21-4-20-3-25v-43l3-26 5-28 9-33 10-28 11-25 10-21 13-23 16-26 8-11 12-17 11-14 9-11 11-13 10-11 7-8 9-9 7-8 10-10 8-7 9-9 8-7 10-9 11-9 13-11 13-10 20-15 14-10 19-13 23-15 23-14 24-14 32-17 23-12 22-12-2-6-5-10-5-19-4-18-5-13-3-8-1-9 1-14-3-10-5-10-1-5v-7l3-9 5-4 8-2-3-5-11-9-7-8-3-6v-6l3-3h16l33 3 2 1-5-5-19-13-11-8-18-11-5-6 1-4 9 2 61 20 35 11 17 5 2-1-9-7-23-12-18-8-16-8-19-10-18-11-14-10-9-9-3-6 2-5 2-1h8l16 5 17 8-10-10-8-7-16-16-6-10-1-3v-8l3-6 8-4h2l-2-8-5-11-2-9v-7l2-7 5-6 1-3 1-35 6-18 4-26 4-10 6-11 3-20 7-23 11-27 10-23 5-15 15-30 14-27 9-14 5-8 6-12 24-36 13-18 10-14 13-17 8-10 12-14 15-16 7-7 7-8 44-44 8-7 11-11 8-7 11-10 14-11 18-14 19-14 36-26 19-12 11-6 14-10 23-13 38-19 29-13 20-8 16-4 24-3zm1 8-26 3-28 7-4 2v1l42 3 20 2 23 4 26 7 21 8 25 12 17 10 14 10 14 11 14 12 24 24 9 11 11 13 15 20 18 27 14 24 11 20 13 28 9 21 8 21 13 38 8 29 9 38 7 37 6 43 4 40 2 33 1 27 1 79 29 4h11l3-8 2-18 1-23v-53l-2-51-2-32-3-33-4-30-7-36-10-42-8-27-12-36-11-28-11-25-8-16-13-25-14-23-15-22-13-17-9-11-9-10-7-8-20-20-11-9-12-10-17-12-18-11-27-14-24-9-25-7-24-3zm-38 23-24 2-25 5-20 7-8 4v2l7 1 49 1 19 1 17 3 27 9 17 7 19 10 17 10 17 12 13 10 15 13 27 27 9 11 10 12 13 18 9 13 14 22 15 27 8 15 15 33 13 32 12 35 11 38 10 43 6 31 7 45 4 39 2 30 2 42 2 16 4 9 5 3 13 2h14l5-2 2-5 1-9v-48l-3-52-4-43-6-44-8-44-8-35-10-36-12-36-11-29-12-27-11-23-12-22-12-20-8-12-10-13-12-14-7-8-9-10-14-15-17-17-8-7-10-9-17-13-13-9-21-12-23-10-21-7-21-5-20-3-17-1zm-68 28-28 7-12 4-6 4-2 2v3l10 2 33 1 23 3 20 5 20 7 20 9 23 12 21 14 13 10 13 11 12 11 16 16 7 8 11 13 15 20 12 17 12 19 11 19 12 22 12 24 13 30 11 29 13 38 12 43 9 39 6 32 7 49 7 63 3 15 4 5 13 2h16l4-4 2-8v-19l-2-41-3-35-5-41-9-53-8-36-7-27-11-36-13-35-10-24-11-24-16-31-15-25-10-15-12-17-10-13-11-13-7-8-9-10-18-18-8-7-11-9-19-14-16-10-18-10-22-10-21-7-25-5-25-3zm-35 30-21 2-12 6-10 9-8 8v2l41 1 19 3 19 5 19 7 25 12 23 14 17 13 10 8 14 12 25 25 9 11 8 9 15 20 12 17 14 22 15 26 12 23 14 29 15 37 12 34 10 33 9 34 8 37 8 42 7 46 4 24 3 4 10-1 27-1 1-1-1-19-5-54-6-42-8-43-8-34-10-36-14-43-11-28-12-28-16-33-15-27-15-24-11-16-14-19-11-13-9-11-7-7-7-8-11-11-8-7-14-12-18-13-17-11-29-15-21-8-23-6-21-3-14-1zm-60 15-9 9v2l4-2 7-7zm14 19-13 2-6 4-10 14-2 5 12 3 27 5 20 6 19 8 21 10 17 10 17 12 14 11 14 12 28 28 9 11 11 13 12 16 15 22 12 19 20 35 8 16 15 32 13 32 13 36 10 31 10 36 10 42 13 64 2 4h39l1-4-8-55-10-53-10-42-7-26-11-36-13-36-18-42-8-17-10-19-10-18-12-20-10-15-12-17-13-17-9-11-9-10-7-8-24-24-11-9-12-10-19-13-15-9-17-9-14-6-26-8-27-4-12-1zm-35 5-11 13-4 6 1 3 8-7 6-8 2-4v-3zm-23 8-11 11-3 4v3l5-2 9-11 2-5zm16 22-13 24-3 5 1 3 28 7 20 7 20 9 17 9 21 14 13 10 13 11 12 11 18 18 7 8 11 13 13 17 12 16 20 30 17 28 9 16 8 16 15 32 15 37 13 37 10 31 11 39 8 31 6 18 4 6 5 4h13l16-4 2-2v-7l-8-43-8-35-10-37-11-36-11-31-12-30-12-27-12-25-8-15-6-11-10-18-10-16-10-15-12-17-10-13-8-10-12-14-12-13-18-18-11-9-13-11-20-14-23-13-15-7-16-6-24-6-20-3-9-1zm-13 0-8 6-10 14-4 10 4 1 8-8 9-14 3-8zm-23 5-7 6-9 13-2 4v3l5-2 9-11 6-11v-2zm-26 11-7 8-5 8v2l4-1 6-7 4-9zm3 23-8 9-8 14-1 7 3 1 6-5 8-13 4-10-1-3zm21 0-5 4-7 11-5 11-1 8h4l6-7 9-17 2-8-1-2zm19 0-7 8-10 18-4 9 1 3 15 4 23 11 18 10 24 15 14 10 11 9 14 12 17 16 11 12 12 14 14 18 13 18 8 12 13 20 14 24 6 10 22 44 12 27 16 39 15 42 12 36 7 23 6 3 6 1h24l4-2v-8l-9-38-13-47-12-35-8-23-15-37-13-29-16-32-14-24-11-18-13-19-12-16-11-14-12-14-12-13-32-32-8-7-13-11-18-13-19-11-16-8-15-6-36-11zm-60 5-6 5-6 9-4 10v3l4-1 7-8 8-16v-2zm-26 12-5 6-2 5v5l4-2 4-6 1-8zm25 22-6 8-5 10-6 14v6h6l6-8 7-15 3-9v-6zm-21 4-4 5-8 16-3 9 1 4 2 1 5-5 8-16 3-8v-6zm39 0-7 10-6 16-1 5v7l3 3 3-1 5-12 9-23v-5zm-60 3-4 3-6 16-2 6v6l4-1 8-13 5-13-1-3zm80 0-5 6-8 17-6 15 1 5 16 6 16 8 18 12 12 9 16 13 11 10 8 7 26 26 7 8 12 14 12 15 14 19 11 16 11 17 12 20 14 25 8 15 11 23 11 24 13 31 19 49 7 18h12l28-2-2-10-9-29-10-32-13-36-14-34-12-26-11-23-9-16-6-11-9-16-13-21-10-15-12-17-10-13-8-10-11-13-9-10-7-8-19-19-8-7-14-12-18-13-19-12-21-11-20-8zm-99 9-7 10-4 7v5l2 1 5-5 4-8 2-6v-4zm5 30-5 6-6 14-2 7v8l5 1 6-9 4-11 1-5v-10zm16 0-3 5-7 25v8l3 1 4-4 5-10 5-15 1-8-2-2zm22 0-4 5-6 15-3 12v10l2 3 4-2 4-7 5-19 1-6v-10zm-58 4-5 6-5 13-2 10 2 2 4-1 4-5 5-19v-5zm76 2-5 6-5 13-3 14v10l3 3 5-8 4-11 3-14 1-10zm-97 6-4 6-6 17 1 4 4-1 5-10 3-11-1-5zm112 0-4 9-8 25-1 4v7l21 14 11 7 16 12 11 9 12 11 13 12 15 16 10 11 9 11 13 16 12 16 13 18 17 26 16 26 13 23 12 23 8 16 10 21 13 31 6 14 5 4h8l14-2 15-1-1-5-12-35-14-36-10-23-12-26-12-24-12-22-18-30-18-27-10-14-13-17-13-16-9-10-7-8-16-17-12-11-10-9-14-11-15-11-21-13-28-14zm-133 17-3 5-1 8 4-4 3-8zm28 14-4 5-5 19-2 15 2 3h5l3-3 4-14 3-18-1-6zm18 1-3 5-6 25v13l2 2h4l4-8 4-17 1-7v-8l-3-5zm-36 3-5 8-4 12-1 5v7l1 2 5-1 3-4 4-15 1-10-2-4zm55 0-4 8-3 13-2 14v7l3 5 4-2 4-11 4-24v-7l-2-3zm19 6-4 7-4 13-2 10v16l3 5 3-2 6-22 3-15v-10l-2-2zm-92 2-5 6-4 8-2 9 1 7 4-1 4-8 5-20zm110 7-4 5-4 11-3 13-1 12 2 7h4l5-16 6-26-1-5zm-129 4-5 10-2 6v6l3-1 6-16-1-5zm144 4-3 3-4 13-5 24v8l16 12 10 8 14 12 13 12 31 31 7 8 9 10 9 11 12 15 12 17 12 18 11 17 17 28 12 21 9 16 15 29 8 15 5 6 5 1 30-7 1-5-13-30-14-30-8-17-10-19-12-23-13-22-15-24-14-20-11-15-10-13-9-11-11-13-12-13-14-15-15-14-14-12-13-10-24-16-12-6zm-115 19-5 5-3 12-2 13v14l4 3 5-2 2-3 3-29v-12zm-22 4-4 3-3 24v10l3 2 5-1 3-5 2-21 1-10-2-2zm40 0-4 4-3 8-2 10v15l3 9 2 2h5l2-9 1-20 2-17-2-2zm17 4-4 6-2 9-1 17 1 13 2 5 4-1 3-5 2-12v-22l-2-9zm-75 3-3 4-4 15v11l4 2 4-4 2-6 1-12-2-9zm94 5-5 8-3 14v23l2 5 2 2 4-1 1-1 3-34 1-6v-8l-2-2zm18 7-4 5-3 10-1 9v27l1 3h3l4-15 3-23v-13zm-129 2-4 8-3 9v4l3 1 3-3 3-12v-7zm143 7-3 8-3 18-1 10v14l2 3h3l2-5 3-23 1-18-1-7zm13 8-1 1-6 45v6l22 22 8 7 21 21 7 8 8 8 7 8 11 13 13 17 12 16 22 33 13 20 13 21 19 32 8 12 1 1h7l30-11-1-5-14-27-9-16-7-14-13-23-13-22-14-22-16-23-16-21-8-10-11-13-9-10-7-8-10-10-5-6-8-7-10-10-8-7-13-11-18-13zm-144 11-3 5-2 8-1 18 2 8 4 4 5 1 2-4 1-10v-14l-2-14-2-2zm18 0-2 4v25l2 13 3 6h4l2-8v-30l-2-9-1-1zm22 3-4 3-1 4v35l3 9 4 2 3-2 1-4v-39l-3-7zm-57 2-4 4-2 7v23l2 3h2l4-11 2-12v-13zm74 4-2 2-1 14 1 20 2 14 2 4 3-1 2-14v-20l-2-15-3-4zm-91 6-5 10-3 9v8l4 2 5-5 1-2v-16l-1-6zm109 4-4 8-1 5v9l2 18 4 15 3 1 2-10v-32l-2-11-2-3zm17 8-2 5-1 6v33l2 13 1 2 3-1 1-4 1-15v-13l-1-18-2-8zm15 10-2 5-1 29 1 16 2 10 3 1 2-10v-36l-2-14zm15 11-1 3-1 14v19l1 18 2-4 2-23v-24l-1-3zm-142 2-3 6-1 7v10l3 16 4 6 5 4h2v-20l-3-24-3-5zm18 2-2 3v16l3 22 3 8 3 3 5-1 1-1v-11l-3-31-3-6-3-2zm-37 2-3 4-1 8v14l2 10 2 2h5l2-4 1-6v-18l-2-8-2-2zm57 4-2 3 1 18 4 22 4 11 3 3h3v-15l-3-25-3-13-3-4zm118 0-3 15-2 23 1 15 5 10 18 20 16 16 9 11 9 10 9 11 11 14 14 18 14 19 16 23 18 30 6 6h7l21-9 5-5-5-13-12-23-17-28-10-16-11-16-10-14-12-16-11-14-9-11-11-13-12-14-7-7-7-8-15-15-8-7-11-9-4-3zm-190 4-4 5-4 11v9l3 5h5l3-4 1-13-1-12zm93 3-3 5v10l3 22 4 15 4 8h3v-23l-3-23-3-11zm17 10-1 1v11l6 41 3 9 3 2 2-3v-8l-2-18-1-20-2-11-4-4zm19 12-1 1v14l3 29 3 15 3 3 1-2v-18l-2-21-3-16-2-5zm16 12-1 3 1 27 3 24 3 9h1v-30l-3-25-2-8zm-128 2-2 2v10l5 19 7 17 5 7 5 1 1-4-9-36-4-10-5-5zm-16 0-4 4-1 2v15l4 14 5 9 6 4h4l-2-11-5-26-3-8zm34 5 1 8 10 35 6 14 4 5h5l-1-9-7-29-4-13-5-8-5-3zm-54 2-4 6v13l4 14 4 5 3 1 3-2v-7l-2-11-1-14-3-5zm180 2-2 3v27l3 22 2 5h1l1-12v-24l-2-19-1-2zm-99 5-2 2v11l8 29 6 16 4 7h2v-12l-5-26-5-18-5-8zm113 11v13l2-1v-12zm-94 1v7l6 24 9 29 4 8 4 1-1-10-12-50-5-8zm105 4-4 22v20l3 12 9 17 13 17 11 13 11 14 11 13 12 16 13 17 12 17 12 15 3 1 14-7 11-8 4-4-1-4-6-11-20-30-12-17-14-19-16-21-11-14-13-15-12-14-12-13-7-8-9-9zm-220 1-1 1v10l2 3h5v-6l-5-8zm134 8 2 13 9 33 8 23 4 2-4-19-8-35-4-12-4-5zm20 11 1 14 8 35 3 9h2l-1-16-5-26-5-15zm-151 4-3 5v11l4 15 4 8 5 5 7 1-1-9-8-24-5-10zm19-1-3 1-1 4 4 15 8 19 6 10 5 4 6 1-2-10-9-25-8-15-4-4zm23 4-2 1v8l6 17 8 18 9 15 5 5h4l-1-6-15-40-7-13-5-5zm22 10 1 9 16 36 11 21 5 6h2l-1-9-10-25-9-23-3-8-7-6zm105 1v8l2 9h2v-14l-2-3zm-184 3-2 6v12l3 6 5 1 1-1v-10l-5-14zm197 7v8l3-1v-6zm-92 3 1 9 10 24 14 30 8 15 3 2-1-7-7-20-12-29-8-16-5-8zm85 14v10l2-1v-9zm12 0-1 2v9h3v-11zm-72 2v7l6 16 15 35 9 19 6 10h2l-1-5-10-24-12-32-9-20-4-6zm-124 7-3 4 1 9 8 16 6 10 8 10 7 6 2 1h6l-1-5-14-24-9-17-3-8-2-2zm21 4-1 4 6 12 12 19 10 15 12 16 5 6 6 3h3l-2-5-10-18-13-22-12-19-7-9-4-2zm186 1-1 4 1 4h2v-8zm18 2 1 24 3 42 7 9 12 14 9 11 11 13 11 14 12 14 1 2 4-1 14-12 7-8-1-9-6-11-14-19-10-13-16-20-14-17-12-14-12-13-5-6zm-80 2 2 9 9 19h1l-1-14-6-11-3-3zm-161 2-2 2v14l4 11 4 6 3 2h5l2-2-1-6-8-21-4-5zm204 1-1 1v7h3v-7zm-136 4-1 4 9 16 20 30 14 20 12 16 9 10 5 3-1-5-10-16-22-33-17-28-9-12-6-5zm114 9-1 2 3 9 3-1-2-9zm-82 10 1 5 9 15 11 16 15 22 12 17 14 19 2 3h2l-2-5-6-10-14-22-11-17-17-28-9-12-3-3zm584 12v2l7 1 7-1v-2zm94-1-4 1v2h8v-2zm-173 4-1 3h8l-1-3zm231 0 1 4 10 4 5-1 1-4-5-3zm-110 1v5l4 3 8 1 8-2 6-2v-2l-17-2zm-715 3 1 6 8 11 11 14 11 13 12 13 11 11 8 7 10 9 14 11 13 11 28 21 17 12 11 7v-3l-13-11-10-8-16-13-14-12-12-11-15-14-9-9-7-8-7-7-9-11-10-12-10-13-9-10-8-4zm572 0-5 3 1 4 9-1 8-4v-2zm64 0-14 3-4 3 1 4 3 1 16-3 18-6-1-2zm152 0-4 3 1 4 16 4 2-1 1-5-5-5zm-805 1-3 7 1 9 6 12 11 12 8 7 12 7 15 7-2-4-14-15-9-11-11-15-10-15zm903 3 1 3 10 7h3v-7l-4-3zm44 0v3h8l-1-3zm-806 1 1 5 10 18 12 19 6 9h2l-2-6-10-19-7-11-10-14zm432-1-20 5-10 5-2 2v3h11l14-4 9-5 2-4zm120 2-6 3-2 3v7l4 4 11-2 17-7 1-3-8-3-9-2zm-76 2-15 4-8 5-3 3 1 7 5 1 15-5 12-6 3-3-1-4-3-2zm260 0-2 2 1 6 7 5 10 1 7-3-2-4-9-6-4-1zm-94 2-1 1v6l3 4h7l7-3-1-3-10-5zm-281 2-11 4-1 3 9-1 9-4 1-2zm493-1-2 1 1 5 5 4 4 2 7-1-1-5-3-3zm-322 1-17 5-11 5-4 4v6l4 5 9-1 16-6 7-6v-10zm286 3-3 3 9 8h2l1-6-5-5zm-901 1-1 3 6 9 12 14 43 43 8 7 7 7 8 7 5 4v-3l-24-28-13-14-7-8-12-13-14-15-8-8-8-5zm682 0-4 4-1 12 2 4h7l21-7 3-3-8-5-16-5zm103-1-6 2v4l10 6 11 4h6l3-3-2-5-5-4-8-3zm133 2v11l3 3 5-2 1-1v-5l-5-5zm-453 2-11 3-11 5-5 4-1 4 2 3h7l16-6 9-6 2-2v-4l-2-1zm408 0-2 1 1 5 7 11 6 4 9-1 4-3-1-4-6-7-9-5zm-457 1-21 7-9 5 1 4 10-1 14-5 9-5 2-4-1-1zm100 2-16 5-9 4-3 4 3 7 2 2 7-1 16-6 9-6 1-1v-6l-2-2zm237 1-5 5 1 3 8 3 5-1 1-5-5-5zm-93 1-19 5-8 5-2 3v10l1 3 2 1h8l17-6 9-6 2-9-2-5-1-1zm187 3-4 2-1 4 4 6 8 7 4-1 1-2v-12l-4-4zm137 0-4 2-1 4 2 7 4 4h8l10-4 2-4-5-6-8-3zm-419 1-17 6-8 6-1 1 1 7 4 5h8l17-7 6-5 1-4-4-9zm395 0-11 3-2 2 1 9 4 11 2 2h7l13-5 1-5-8-16-1-1zm-846 3-1 2 5 10 4 3-1-6-6-9zm658 0-2 6 2 3h7l5-3-4-4-4-2zm-46 1-2 3v19l2 2 9-2 17-6v-4l-9-6-12-6zm-304 3-14 5-9 6-5 6 1 5 1 1h7l11-4 11-6 6-6-1-4-3-3zm397 0-2 2v6l5 6 12 6h8l2-1-1-4-8-8-9-6zm-105 0-29 10-6 4v9l3 9 2 2 9-1 16-5 6-5 1-3v-19zm218 0-10 3-3 2v6l6 16 2 2h7l9-4 1-1v-6l-8-16zm-459 3-20 8-6 4-1 1 1 9 3 3 7-1 24-12 2-2-1-6-4-4zm-103 1-12 4-9 5-6 5-1 3 2 2h7l13-5 14-9 1-4-1-1zm498 0-1 5 2 2h4l-1-6zm-251 0-17 4-8 4-3 4-1 4v13l2 1 29-10 5-4v-10l-3-5zm-420 3 1 13 5 35 5 21 4 10 5 5 7-1 14-12 9-9-2-4-10-14-10-13-11-13-7-8-9-10zm828 1-5 3-4 18-1 11 1 1 7-1 12-4 5-4 7-14v-8l-3-2zm-499 0-17 6-9 5-4 4v7l5 5 8-1 17-7 5-4 1-7-3-7zm266 2-4 3 2 4 15 8 4-1-1-7-5-5-4-2zm104 1-5 2 1 6 6 8 6 1 2-5v-7l-3-4zm-957 4-3 3 1 6 9 12 14 14 11 9 19 14 19 12 22 12 20 11 16 8 29 14 12 5 2-1-9-6-23-13-23-14-15-10-16-11-14-10-13-10-16-13-10-9-8-7-13-11-7-5zm114 1 2 4 9 11 16 16 7 8 13 12 19 19v-3l-11-12-7-8-11-12-12-13-18-18-5-4zm947 0-11 4-5 6-1 8v11l2 7 4 1 11-3 4-8 5-19v-6l-1-1zm-338 2-15 5-8 4-4 5v10l3 6h8l12-3 10-4 3-2 1-7-3-11-3-3zm208 1-2 1 1 7 8 10 7 7 6 1 2-3-2-9-5-8-6-5-2-1zm-490 1-21 11-7 8 3 5 5 1 11-4 12-8 5-6-1-6-1-1zm50 0-19 10-6 6v7l2 4 3 1 11-5 16-8 4-4-4-10-1-1zm140 0-16 5-6 4-2 3v10l4 4 10-1 12-4 6-4 3-7-1-8-2-2zm202 0-2 7v8l1 7 7-1 17-6 2-1v-2l-20-12zm-15 0-13 4-13 5-6 5-1 3v19l1 2 11-3 19-7 5-3 2-3 1-6v-9l-2-6zm-425 5-10 3-13 8-7 7v6l4 1 17-9 11-8 3-4-4-4zm148 2-15 6-9 6-1 7 3 6 4 1 24-9 5-4-1-9-4-4zm367 0-3 2 1 5 8 7 2-1 1-6-2-5-2-2zm121 0-8 3-3 5-1 7v16l2 5h6l7-4 3-7 1-6v-15l-3-4zm108 1-16 7-8 6-9 10-11 19-8 14v3l5-1 12-6 11-10 9-11 16-21 5-8-1-2zm-162 1-3 6v2l4-2 2-3v-3zm-297 5-19 7-5 4 1 9 3 6 2 1h8l16-6 4-4 1-6-2-9-1-2zm-633 1 6 8 15 12 18 13 20 14 15 10 13 8 3-1-8-8-11-9-18-14-18-13-21-14-11-6zm839 0 1 4 9 8 13 8 5 1-1-5-7-7-11-7-5-2zm-291 0-13 4-12 6-3 2v6l4 6 1 1h10l15-5 5-4v-8l-3-7zm175 1-17 6-5 4-3 7v14l2 2 9-1 17-5 5-4 1-3v-18l-1-2zm236-1-9 3-2 3 1 9 5 15 4 4 4-1 2-5 1-12-1-12-2-4zm-79 4-1 9 2 4 6-1 2-4-6-8zm-476 3-12 6-10 7-2 2 1 8 2 2 7-1 16-8 8-6 1-3-2-5-2-2zm-274 1m686 0-16 5-8 4-3 4-2 7v16l1 1h7l19-6 5-3 2-3 3-24-1-1zm-462 1-12 6-10 7-3 3 1 5 1 1h7l12-4 11-7 2-3v-5l-3-3zm579 0-5 4v7l7 16 4 4 4-1 1-2v-10l-4-13-4-5zm-476 1-12 5-10 6-5 6 2 4 2 2h7l11-4 9-6 4-4-1-7-2-2zm589 2-12 5-7 6-8 16-5 15v6l3 1 8-7 7-10 8-13 8-16v-3zm-213 2-3 5-1 4v7l3 2 11-1 6-3v-4l-7-7-5-3zm-529 1-11 8-11 11-2 3 1 4 10-4 11-7 9-8 1-3-4-4zm287 0-18 6-5 5 1 10 4 5 10-2 16-6 5-4-1-9-5-5zm-87 1-18 8-6 4-1 4 6 8 1 1h6l16-7 5-6-1-9-2-3zm175 0-16 5-6 4-2 4v14l1 2h10l15-3 6-3 2-3 1-12-2-7-2-1zm235 0-5 3-1 4 4 2 4-4 1-5zm-24 7 1 5 9 11 8 8 1-4-7-12-4-5-4-3zm-118 0-12 3-12 5-5 5-2 4-1 8v10l12-1 16-5 6-5 4-7 1-10-2-5zm235 3-8 5-4 9-3 18 1 10 5 1 2-2 7-20 4-11v-9zm-641 1-9 5-11 9-5 6v5l1 1 7-1 19-10 5-5 1-4-3-5zm49 1-16 8-8 6-1 2v6l2 3 8-1 15-8 5-4 2-3v-8l-1-1zm139 1-11 3-10 4-5 5 1 7 4 4h11l10-4 7-6 1-7-3-5zm84 1-20 7-4 3v8l4 9 6 1 13-4 8-5 2-10-1-7-2-2zm-321 1-9 6-13 11-4 5v4h7l17-9 6-5 2-3-1-7-2-2zm559 0 2 4 8 9 4 1-3-5-9-9zm-415 4-12 5-7 6-2 4 1 5 2 2 7-1 18-6 4-4 1-6-2-4-2-1zm462 0-1 1v7l2 3 4-1-1-6-2-4zm252 0-20 11-25 16-6 5 3 1 19-10 20-12 10-8 1-3zm-448 1-20 7-8 5-2 6v10l2 4 5 1 20-4 6-4 2-7-1-15-1-3zm125 0-16 5-5 4-3 8-2 11v11l8-1 21-6 6-4 3-5v-21l-2-2zm132 0-7 2-4 5-1 7v16l2 8h3l3-5 4-12 3-14v-5zm-1022 3v2l15 10 16 9 17 8v-3l-19-12-21-12-5-2zm1133 0-17 8-10 8-13 13-11 14-12 16-2 5 4-2 8-7 15-14 9-9 8-7 11-11 8-7 5-5v-2zm-582 4-14 4-8 5-3 4 1 7 2 2h9l15-5 5-4 1-5-3-7zm86 0-17 5-6 4-2 2v7l2 4 2 1h17l9-3 3-3v-9l-3-7zm361 1-2 5v17l3 12h2l1-5v-23l-2-6zm-691 1-9 7-10 9-5 6v4l5-2 13-10 8-8 2-3v-3zm606 1-3 2v10l2 3h8l3-3-1-6-7-6zm-59 1-27 9-5 4-2 7v17l1 1 11-1 16-4 5-4 4-15 1-14zm-441 2-16 8-8 6 1 4 7 1 10-3 10-5 5-6-2-5zm569 1-1 1v12l4 14 4 6 1-3-2-11-1-13-3-6zm-808 1m287 0-16 8-7 5-1 5 1 1h10l14-5 6-4 2-5-3-5zm256 0-14 5-6 6v16l2 2 8-1 15-5 4-3 2-11-2-8-1-1zm360 1m-713 1-10 5-9 7-5 5v3h7l14-7 10-8-1-5zm602 1v7l3 4h2v-9l-2-2zm288 0-21 6-24 9-20 9-17 9-26 16-19 12-36 24-9 7-1 2 5-2 23-12 21-12 19-10 19-9 28-12 28-10 21-7 12-6 6-5 1-6-4-3zm-661 3-14 4-5 3-1 2v12l5 2 16-4 9-4 1-1v-9l-3-5zm-85 1-10 3-6 3-5 5-1 4 2 5 3 1 13-4 8-4 5-5 1-5-3-3zm-191 3-10 6-12 12-1 5 7-1 12-9 7-8 1-4zm359 1-15 5-4 4v10l3 6 4 1 20-3 4-3 1-4v-9l-2-5-2-2zm401 0-5 3-10 15-12 21-2 4v3l3-1 13-17 11-15 6-10v-3zm-273 0-16 4-6 3-3 3-1 3v17l2 3h7l19-5 5-3 2-6v-12l-2-6zm123 4-11 3-8 6-3 9-2 14-1 6 4 2 21-5 10-5 3-5 2-10-1-9-5-5zm-857 2 1 3 15 10 21 11 25 11 16 6 7 2h6l-1-3-24-10-16-8-25-12-22-10zm305 1-14 7-10 8-2 3h7l15-6 9-6-1-5zm44 1-13 5-8 7v3l7 1 13-4 9-5 3-3v-3l-2-1zm128 0-9 3-4 5v8l2 2 13-1 13-2 3-5v-6l-3-4zm-79 3-15 6-6 5v2l2 1h16l10-3 3-3v-5l-2-3zm579 0-4 5-10 25-3 10 4-2 12-23 3-8v-7zm-775 1-1 1v7l2 1 1-2v-6zm369-1-16 4-6 4-1 1v9l2 4 7 1 20-4 3-3-2-10-4-5zm118 1-13 4-5 6-2 12 1 7 3 1 24-4 3-5v-17l-3-4zm-430 3-14 7-10 8-3 3v2l6-1 16-9 7-6 1-3zm557 1-16 5-6 4-4 7-1 6v12l2 3h9l14-3 7-4 3-6 3-17-1-6-1-1zm385 0-12 5-14 10-7 6v1l12-1 39-5 12-3 3-3-2-4-9-4-7-2zm-760 4-12 3-5 3-1 5 3 4 7 1 11-2 10-5 1-5-4-3-3-1zm516 0-4 8-1 8 3 1 4-10v-6zm128 0-23 10-15 9-16 12-13 11-10 9-8 7-2 3 5-2 13-10 29-20 23-15 20-12v-2zm-433 2-18 4-6 4-1 1v16l2 2h11l19-4 2-1v-14l-2-7zm-291 1-12 5-11 6v4h9l13-4 6-3 1-6-1-2zm169-1-15 3-8 4 1 6 5 6h15l12-4 1-5-3-7-6-3zm350 1-2 2v6l4 2 3-4-2-5zm-564 0-13 5-10 5-4 3v2l11-1 16-6 5-5-2-3zm625 1v8h2l1-6-1-2zm-674 3-19 12-7 5v2l9-3 15-8 5-4v-4zm888 0-17 6-25 11-34 16-19 10-5 4v2l11-3 30-12 23-10 28-14 11-8 1-2zm-378 0-20 5-8 4-2 3v17l4 5 7 1 16-5 6-5 1-2v-20l-2-3zm152 1v8l3-1v-6zm-716 0-6 3-2 2v3l7-1 4-4-1-3zm276 3-13 4-4 2-1 4 1 7 1 1h10l15-3 4-3-1-6-2-4-3-2zm-90 1-10 3-5 4 2 4 3 1 13-1 11-4 2-4-3-3zm212-1-16 4-6 5-1 2v6l4 5 5 2h11l7-2 3-3 1-3v-10l-2-5zm-389 7-8 8-1 3 4-2 6-5 1-3zm98 1-19 7-7 4v2l9-1 18-6 6-4v-2zm133 0-17 5-5 4-1 3 5 4h15l12-3 1-5-4-8zm119 0-15 4-5 4v7l3 6 1 1h10l12-3 3-2 1-4-3-12-1-1zm153 0-12 3-4 4-2 7v14l3 2 14-1 10-3 4-4 1-3v-14l-2-4-2-1zm161 0-8 4-4 6-6 25v4h8l26-6 10-4-1-6-8-12-8-9-3-2zm332 0-30 5-30 7-26 8-25 9-28 11-28 12-19 9-1 2 7-1 29-10 36-12 29-8 35-8 24-4 18-2 10-5 8-8 2-4-1-1zm-1253 1 5 5 17 12 10 5 10 3 45 6 13 2-5-5-13-6-29-8-26-7-23-7zm403 1-15 5-8 5 1 2h10l14-3 6-3-1-4-2-2zm-94 1-10 5v3l9-3 4-3v-2zm970 1-8 7-3 3v4l21 1 17-1 2-2-10-7-11-5zm-707 3-16 3-6 4-1 9 1 3 9 2 16-2 4-3-1-7-2-8zm151 1-13 3-6 4-3 5-1 5v8l1 3 2 1 13-1 12-3 3-3 3-12v-9l-1-1zm174-1-17 4-11 4-5 4-3 8-2 10v8l3 3h7l17-4 5-4 5-11 3-15v-6zm149 3-10 9-9 12 1 2 17-16 4-5-1-2zm-953 1 2 4 10 4 9 2h6l-4-3-21-7zm344 1-9 3-2 2 1 4 9 2 12-2 6-3 2-2-1-4zm-126 3 1 3h7v-3zm52 0-14 2-8 4v1l14-1 14-4v-2zm167 0-14 3-5 4v8l2 2h11l15-3 3-3-2-7-5-4zm158 0-17 3-5 5-1 10 2 7 3 2h9l8-3 4-4 2-10-2-9zm-281 4-20 4-3 3 3 2h13l14-3 3-2v-3l-2-1zm441 0-17 4-9 6-5 10-1 12 2 3 3 1 13-1 11-4 4-5 3-10 2-13-3-3zm-885 4v3h2l1 3 8 7 11 9 10 4 25 1 23-1-5-5-8-7-8-4-15-4-41-6zm519 0-8 4-2 5 2 2 4 1h13l9-3 3-3-1-4-4-2zm159 0-10 3-4 5v11l3 3 3 1 14-1 7-3 3-4 1-9-2-5-1-1zm634 3-19 3-9 3-7 5v2l5 1h44l12-2 5-3 1-4-2-3-7-2zm-910 1-18 4v2h10l15-4v-2zm861 0-31 6-41 11-39 12-22 8-4 3 2 1 78-18 16-3 14-2 18-6 16-8 2-3-1-1zm-781 2-11 3 1 4 7 2h13l8-2 1-4-3-3zm157 0-11 2-3 3 1 7 3 5 5 3h12l6-3 3-4v-9l-3-3-3-1zm205-1-21 4-6 4-3 8v15l2 2h15l9-3 5-6 3-15v-9zm-693 3v2l6 1 2-1v-2zm20 3-1 3h8l-1-3zm271 0-10 3-2 3 4 2h19l7-2-1-4-6-2zm157 0-7 3-2 5v8l2 2 10-1 15-2 2-2-1-7-5-5-2-1zm756 0-2 2v5l5 4 14 3 4-1-12-10-6-3zm-1270 1 2 4 8 6 8 3 18 2 24-1 5-2-3-3-15-3-39-5zm719 1-16 2-8 3-3 6-1 14 4 4h17l5-3 3-6 2-13v-6zm-397 3v2h10v-2zm166-1-13 2-6 3-2 2 1 4 7 3 7 1h12l3-2v-9l-2-3zm412 0-37 9-9 4-5 5-6 21v6l6 1 24-3 20-4 9-4 5-4 2-9-3-15-4-6zm-457 4-12 3-2 2 1 4 5 2h19l5-4-1-4-4-3zm229 0-14 3-5 4-1 5v9l2 5h19l7-3 2-4 1-7v-8l-4-4zm-277 4-4 2 1 3 6 2h17l5-3-2-3-4-1zm816 0-29 3-17 4-6 3-1 3 9 2h55l13-2 6-3 1-5-7-3-13-2zm-577 2-12 2-4 4-1 5v7l2 6h9l13-3 3-2v-11l-2-6zm-450 2-16 3-6 3-2 5 4 8 11 14 9 10 7 8 11 8 6-1 1-2v-7l-12-40-4-6-5-3zm128 1 3 2h15l2-2zm45 0 2 2h14l2-2zm904 1-6 4-4 6 5 3 31 5 10 2 2-2v-8l-7-3-25-7zm-674 1-7 2-1 2 1 9 5 5 6 1h16l3-5v-7l-2-5-8-2zm-514 1-36 3-8 2-2 1 1 3h23l16-3 8-4zm758 0-15 2-6 3-4 5-5 16-1 10h12l16-4 5-6 6-18v-7l-2-1zm-278 3-7 2-2 2v8l3 3 4 1h12l7-3 1-2v-6l-4-4-5-1zm-598 1v2l12 9 7 4h16l25-5 2-3-5-4-14-3zm570-1-9 2-6 3-2 5 4 4 7 2h10l5-2 2-2v-7l-4-4zm593 1-31 8-49 14-4 2v1l11-1 41-9 36-10 5-5zm-1192 3-7 3-1 1v7l6 10 7 5 7-1 19-6 2-3-7-8-8-5-12-3zm478 0-7 3 1 3 11 4 15 2 2-1-1-6-3-3-7-2zm39 0-7 3-1 4 4 4 5 1h14l6-2v-5l-6-4-4-1zm35 0-5 2-1 4 4 4 8 2h9l7-3 1-5-3-3-5-1zm-148 1v2l5 1 5-1v-2zm40-1-12 1 1 3 9 3h15l2-4-4-2zm412 1-12 3-4 5-4 9-1 4v10l4 1 18-1 7-2 2-5 3-15v-7l-2-2zm-643 2-9 7-12 11 6 8 11 12 7 8 10 12 11-2 23-5v-3l-12-15-10-13-11-13-8-7zm613 2-20 3-4 2-3 6v9l8 4 11 2 7-1 3-7 2-11v-7zm-692 3-11 3-4 4h7l19-5-1-2zm1127 0-34 2-30 4-17 4-1 3h53l33-2 17-2 9-2 5-3v-3l-5-1zm121 0-1 5 4 3 8 2v-4l-7-6zm-67 3-6 4-4 5 1 3 27 2 24 4 5-2 1-7-3-3-31-6zm-548 1-5 2-1 5 4 4 16 3 6-1 3-6v-5l-3-2zm-678 3-26 5-4 2 4 4 6 3 9 1 10-2 14-5 5-5-3-3zm639 1-1 2 8 2 12 1 6-1-1-3-3-1zm-286 1 2 2h15l1-2zm120 6-7 2-2 1 1 5 7 3h16l2-2v-5l-4-3zm35 0-8 2-2 2 1 5 2 2 4 1h13l5-2 2-2-1-5-3-2zm35 0-8 2-2 2v5l7 3h13l5-2 2-2-1-5-3-2zm34 0-7 2-3 5 4 4 3 1h14l5-2 2-5-4-4-6-1zm-173 1v2l2 1h6l2-1v-2zm31-1-7 1-2 3 5 3 4 1h15l3-2v-3l-5-2zm170 1-3 3 1 5 2 2 4 1h13l6-2 1-4-5-2zm273 0-31 5-15 4-9 5-2 5 6 5 13 4 27 7h9l4-5 7-15 2-6v-7l-3-2zm410 0-4 6 1 3 20 8 7 2h6l1-4-7-6-19-9zm-1342 3-14 5-5 4 1 5 10 7 8 1 12-5 8-5 3-3-2-5-8-4zm77 1-21 8-8 5 1 3 2 1 10-1 13-5 6-4 3-3v-4zm338 0v3l7 3 5 1h8v-2l-13-4zm279 0-3 3 4 3 6 1h9l6-1-3-3-9-3zm490 0-36 3-36 5-19 4-1 2 50-3 59-3 18-2 8-2v-3l-4-1zm70 1-10 4-2 1v3l13 3 29 4 10 1h17l4-4-1-3-11-4-36-5zm-1106 2-5 6-5 11-3 10 3 7 7 6 6 1 17-4 11-4-1-4-9-10-7-8-8-8-4-3zm580 1-2 3 4 3 11 1 9-1-1-3-9-3zm-281 2 2 4 9 4h15l1-4-7-3-6-1zm407 1-9 4 1 3 7 2h10l4-3-1-5-3-1zm-760 4-17 8-8 6-3 3 1 4 3 1 9-6 12-9 5-4v-3zm391 1v2h10v-2zm-64 3-2 2 1 1h9l-1-3zm389 0-1 2 2 1h6v-3zm-253 1-1 2v8l4 4h14l4-2 1-6-3-3-14-3zm635-1-61 4-7 1 3 2h44l21-2 5-3-2-2zm135 1-2 1 1 4 16 8 17 5h8l2-4-4-5-11-5-15-4zm-1360 1-2 4v7l3 9 5 5 5-1 7-7 1-5-13-11zm64 2-10 3-11 6-2 2 1 5 7 8 7-1 13-10 6-7-1-5-2-1zm73 0-11 9-11 11 1 3 9-7 6-5 8-10zm420 0-3 2 1 3 8 3h16v-4l-7-3-5-1zm68 0-5 3 1 4 5 2 15-2 6-3-2-3-3-1zm34 0-4 2v3l4 2h14l5-3-4-4zm31 0-4 2v2l9 1 15-2 1-3zm37 1 1 2h15v-2zm35 0v2h15l1-2zm31 0 1 3 10 3 12 1v-3l-18-4zm455 0-3 1v2l10 3 24 4 31 3h13l3-2-1-4-8-3-12-2-24-2zm-127 3-1 2 2 1h10l3-2-2-1zm-623 2-3 2 1 3 9 2 6-1-1-4-3-2zm-217 1-2 2 1 6 11 15h2l-3-10-5-10zm181 4v3l11 5h7v-2l-12-6zm68 0-7 3 1 3 5 2h11l6-3-1-3-6-2zm171 0-11 3-4 3 1 3 5 2h13l6-4 1-4-2-2zm27 0-7 3v3l5 2h11l8-3v-3l-5-2zm35 0-8 3 1 3 5 2h11l8-3v-3l-5-2zm580 0-5 4 1 5 36 12 7 2h7l1-1v-6l-6-5-16-6-20-5zm-186 1-5 1v1l8 1h13l9-1-4-2zm254 1-1 5 5 5 10 6 10 3 1-2-4-5-15-10zm-1150 1-28 6-1 2 9 11 7 8 8 4 10-1 13-4 1-1v-6l-7-11-7-7zm-178 2-11 7-7 7v6l4 4 5-1 9-7 8-11-1-4-1-1zm576 0v2h14v-2zm183 0 1 2h8v-2zm374 0v2l9 2 47 7 13 1h16l3-1v-2l-9-4-13-2-26-2-26-1zm-725 3-1 4 3 3 4 1 3-3-2-4-1-1zm99 1-1 5 3 5 4 2h9l9-2 2-2v-3l-12-4-5-1zm-563 1-10 10-1 5 9 10 5 4 8-11 2-4v-6l-9-8zm432 2v3l9 4h6v-2l-9-4zm102 0v3l10 4h8l2-4-2-2-4-1zm65 0-2 2 1 5 3 1 5-3 1-3-2-2zm503 1 1 2h17l1-2zm-919 2-14 4-6 3 2 5 14 15 5 4 4 2 9-1 12-5 4-3-1-6-9-11-8-6-3-1zm981 1-2 2 13 2 48 8 8 1h17l2-1-1-3-17-4-36-4-17-1zm131 0-6 4v3l10 4 39 11h8l5-5-4-4-15-5-31-8zm-1220 2-9 7-8 9-1 6 2 2 7-1 9-10 4-9-1-4zm427 2-2 4 3 3 9 3h10l-1-7-6-3zm161 0-4 2v3l4 2h14l5-3-4-4zm33 0-2 2 1 1h13l1-2-3-1zm680 0-3 3 2 5 12 7 17 7h5l1-4-7-6-14-8-10-4zm-730 0-16 4-3 5 2 3h13l8-4 1-5-2-3zm-36 4-4 3 2 4h8l4-3-2-4zm158 0-1 2 3 1h9v-3zm367 0v2l3 1h9v-3zm-669 1 2 4 14 7 9 2 1-4-6-4-17-5zm266 2-7 2v3h15l7-2v-2l-6-1zm250 0-2 2 1 6 5 7 2-4-1-8-2-3zm-841 1-12 5-4 4v6l6 9 10 10 2 1h7l24-9-2-4-8-8-6-7-8-6zm294 0 4 4 16 8h6l-2-4-9-4-12-4zm730 0 1 2 22 5 19 3h12l-1-2-16-4-28-4zm-1141 1-5 5-6 10 1 7 4 5 3 2 4-1 5-5 6-8 1-4-4-6-6-5zm934 1-1 2v7l3 1v-10zm11 0v10h2l1-2v-6l-1-2zm297 0-2 2 1 4 6 3 16 3 28 8 4 1h11l1-5-9-4-24-7-24-5zm-1178 1-5 4 1 4 5-1 3-4-1-3zm610 0-7 2-1 4 3 2h7l10-4 1-3-4-1zm303 0-2 5 3 3 4-2-3-5zm-432 0-3 2v7l6 3h10l6-2 1-3-6-4-6-2zm-28 4-2 2 8 3h10v-3l-4-2zm-281 0-14 4-7 4-1 3 7 12 8 9 7 1 17-7 2-3-8-12-7-9zm403 1v2h15l-1-2zm99 0v2h10v-2zm600 2-2 3 1 5 10 5 19 7 9 2 3-3-1-5-3-3-27-11zm-625 1-6 2v3h7l9-3v-2zm-752 1 1 10 4 11 3-1 2-6-1-7-6-7zm530 0-9 4-1 2 9 3 10 1 2-1-1-7-2-2zm650 0v2h10v-2zm-1065 3-4 5-5 10-2 10h3l6-9 4-10v-6zm315 0 2 4 6 6 2-1-7-8zm218 0-5 2v4l7 2 8-2 5-3v-3zm391 0-3 2v13l5 25 1 1 13-1 50-7 16-2v-3l-9-5-26-11-25-9-12-3zm158 0 1 3 8 2h7v-3l-5-2zm-567 0-15 4-2 4 4 3h13l5-4-1-6zm629 1v2l34 11 21 5 11 1v-3l-8-5-20-6-21-4-8-1zm174 1 1 4 7 7 7 4h3l-1-5-9-8-4-2zm-1373 2-2 2 1 4 4-1 2-2v-3zm436 0-1 3 5 5 7 4 6 1 2-3-5-5-10-5zm522 0-1 2 1 14 4 20 2 2h7l2-2-2-10-5-20-4-6zm-783 0-14 4-10 5-2 4 12 13 8 6h10l19-6-2-5-10-12-7-8zm319 0-2 2 1 1h9l1-2zm-467 4 1 5 2 2h5l2-4-3-3zm316 0 1 4 7 6h2l-2-4-6-6zm281 0-10 3-4 3 1 4h8l13-3 1-5-2-2zm302 0-2 6-1 7v14l2 9 2 2h6l1-1-1-9-1-6-1-17-2-5zm15 0-2 4v13l3 12 5 5 5-1 1-5-5-21-3-6zm231 0 1 3 30 10 25 7 9 2h6l-2-3-30-11-29-8zm128 1-3 2 1 5 10 5 24 10 10 1 1-4-7-6-21-10-10-3zm-885 2-1 5 4 3h4l-1-5-5-3zm268 0-9 3v2l3 1 11-2 2-1-1-3zm230 0-1 1-3 21v11l2 3 4-2v-27l-1-7zm-391 1-1 1v5l3 3h12l6-2v-3l-12-4zm379 1-1 2v5l3 1v-8zm-942 3-4 9 1 4 6-1 4-3v-5l-5-4zm633 0v2l7 1 2-1v-2zm65 0-12 3-4 3 1 4 8-1 13-3 1-5-1-1zm-651 0-8 4-6 5-1 4 3 4h5l6-7 3-7v-3zm71 1-3 3-1 2v7l5 1 7-4-1-5-6-4zm298 2 2 5 11 8 4 2h3l-2-4-10-8-6-3zm106 0-8 5 1 3 8 2 4-3-1-6zm885 0-1 4 8 7 12 7 5 2h5l-1-5-12-10-8-4zm-1306 1-3 13 1 4 4-7 1-6-1-4zm67 0-20 8v3l8 7 10 10 8 5 8-1 11-5 4-4-1-5-8-11-7-6-2-1zm275 0 2 5 7 5h3l-1-4zm765 0v2l26 10 19 6 4 1h7v-2l-14-6-24-7-16-4zm-1147 2-6 5-4 9-1 8 3 6 5 2 3-3 6-14v-9l-5-4zm538 1-6 3v6l6 3 8-2 7-6v-3l-2-1zm126 1-10 4v2h7l8-4 1-2zm595-1-2 1 2 4 14 8 21 8 7 2h10l-1-4-7-5-20-8-16-5zm-783 2-2 1 1 4 3 1h7l3-1v-2l-9-3zm-233 2-1 2 5 10 4 3 1-2-6-11zm-32 0-9 3-3 3v6l7 11 7 6h6l6-4 2-2-1-9-5-10-4-3zm116 1 6 8 10 10 2-2-14-15zm101 0-1 3 5 5 5 1 1-4-5-5zm450 1-1 1v12h2v-13zm-299 2-17 8-3 1v2h18l4-2 1-2v-6zm14 0-3 2 1 3h7l7-3-1-2zm551 0 1 3 14 6 19 6v-3l-25-10zm-279 1v8l3-1v-6zm-920 3-2 3v7l3 1 3-6-1-5zm125 0-10 3-10 5-2 2 1 4 11 11 13 9h7l16-8 2-3-6-8-12-12-5-3zm285 0 1 5 4 2 1-1v-5zm138 0-3 4 1 3 5-1 1-4-1-2zm129 0-5 5 1 4 7-1 3-3-1-5zm430 0-78 13-7 3-1 2v22l1 11 1 1 32-1 30-3 42-6 31-6 11-3 3-1-1-4-15-9-23-11-21-8zm185 0v3l15 8 18 8 15 5h6l2-4-5-4-35-14-7-2zm98-1-2 1 1 4 9 8 15 9 5 2h5l1-5-4-5-11-7-13-6zm-829 2-1 1v8l5 1 10-4 2-3-10-3zm-547 1-3 9v8l4 8 5 5 4-1 3-9v-8l-4-7-5-5zm58 0-5 6-1 5 8-1 5-3v-5l-2-2zm161 2-12 4-4 3v6l8 12 7 4h8l12-5 5-2-1-4-10-13-5-4zm114 0 1 7 8 7v-3l-8-11zm11 0 3 5 6 5 2-1-8-9zm20 1v5l6 5 3-1-1-4-5-5zm98 0-2 5 3 5 4-1 1-5-4-4zm-31 3 1 4 5 5 5 2h5v-3l-8-6-4-2zm77 0-6 4-1 3 4 2 5-1 1-6-1-2zm132 0-8 5 1 2h12l5-3-1-4zm785 1 1 5 7 8 4 3h3l-1-4-6-8-6-4zm-164 1 1 3 16 9 19 9 16 5 4-1v-2l-11-7-18-8-24-8zm-681 1-7 3v7l4 2 8-4 6-5v-2l-4-1zm-620 1-20 9-19 10-26 14-17 10-23 14-22 14-16 11-17 12-19 14-14 11-10 8-17 14-10 9-8 7-10 9-17 16-17 17-7 8-14 15-9 11-11 13-15 20-13 18-15 23-14 24-14 27-11 25-8 21-10 33-5 27-3 28v46l3 26 4 19 8 24 11 25 9 16 11 16 9 11 18 20 10 10h2l-2-5-8-13-11-21-8-19-7-21-4-18-2-17-1-15v-44l2-26 4-25 7-27 10-30 11-26 12-25 12-22 14-23 15-22 14-19 11-14 11-13 9-11 14-15 7-8 35-35 8-7 12-11 11-9 14-12 14-11 13-10 19-14 19-13 12-8 23-15 28-17 21-12 23-12 3-2-2-9-7-19-4-8-2-2zm451 0 2 4 7 8 2 2h3v-5l-7-6-5-3zm108 0-1 4 3 3 4-1-2-5zm-211 2 2 6 6 10 2 3h3l-2-7-9-11zm1054 0-3 3v4l21 12 17 9 4-1v-6l-9-8-16-9-12-4zm-1289 1-4 9-3 14 1 7 1 1h5l3-3 1-4v-18l-2-6zm597 0-6 3-1 4 3 1 10-5v-3zm300-1-4 4-2 8v23l5 5 8-1 2-3v-14l-4-17zm16 1-2 2 1 8 2 23 3 5 4 1 3-3 2-9v-10l-3-12-4-4zm-804 1-16 8-4 3 2 4 15 15 5 3 9-1 15-7-2-5-11-13-5-6-2-1zm113 0 2 6 5 10 4 5 2-1-8-16-3-4zm183 3-1 3 3 4h3v-6zm131 0-7 3-2 4 1 4h7l9-4 2-2-1-4-2-1zm87 0-10 5v3l9-1 4-3v-4zm221 0-4 9-3 18 1 7h4l3-9 2-11v-12l-1-2zm15 0-3 4-3 22v8l6 1 4-4v-26l-3-5zm16 0-3 5-1 6v13l2 9 3 2 4-1 2-3 1-5v-18l-3-7zm295 0v3l17 9 29 12 9 2-1-3-14-8-24-11-11-4zm-519 1-7 5v2l6-1 4-5zm178 0-7 21-1 4v8h3l4-8 3-12 1-13zm-849 3-3 3 2 4 6 1 3-3-1-4zm32 0v22l3 3 9-2 5-3-1-5-7-8-7-7zm296 0 1 5 8 8 3 2h4l-2-5-8-8zm23 0-1 2 4 8 5 1-1-5zm89 0-2 2 1 4 4 2 3-3-1-4zm42 0-4 5 2 3 4-2 1-4-1-2zm13 0-2 1v7l1 1h8l4-4-8-5zm673 0 1 3 14 8 16 8 22 10 4-1-10-6-21-11-25-11zm-937 1 3 11 4 8 2 3 3-1-3-9-7-12zm603 0-5 16-3 10v3l3-1 5-11 3-16zm-622 3-2 2 1 7 7 10 4 5 3 1 3-3v-8l-3-7-4-5-4-2zm373 0-8 3-3 3v6l3 1 10-4 6-5v-3l-2-1zm780 0-1 4 9 8 10 6 4 2h3l-1-5-10-10-6-4zm-952 1-1 5 4 4 5 1 2-4-5-5zm881 0-3 2 2 4 9 7 19 10 9 3 5-1-2-4-8-7-20-12-6-2zm-1317 4-10 7-1 5 9 9 4-4 2-8v-8zm322 0 1 5 9 10 5 1-1-5-6-7-6-4zm319-1-14 6-3 3 1 4 9-2 8-5 1-6zm-234 2 1 5 8 7 8 1 1-4-7-6-6-3zm-295 1-19 8 2 4 19 19 6 2 10-4 12-6-1-4-14-14-7-5zm364 0-2 4 4 4h2l1-5zm710 0v3l15 8 8 3 3-1-9-6-13-6zm-971 1-13 5-4 5 3 7 8 8 8 4 10-2 9-4-1-4-10-14-6-5zm333-1-5 3v6l1 1h5l5-4v-4zm-202 2 2 6 4 2-1-5-2-3zm143 0 4 5 5 1-1-4-5-2zm-99 3 1 5 9 8h3l-1-5-4-5-4-3zm274-1-9 2-3 3 1 3 6-1 7-5zm634 1-1 4 8 7 22 14 10 5h7l-1-5-7-6-14-9-12-7-7-3zm-164 1-46 9-40 6-65 7-3 1v39h12l54-3 34-3 44-6 40-8 40-10v-3l-22-12-15-9-12-6-6-2zm-1120 1-4 9v14l4 5 6-1 3-5 1-9-3-9-5-4zm438 1-1 4 5 4 2-4-4-4zm120 1-2 2v6l1 2 5-1 2-2-1-5-2-2zm807 0-1 4 9 9 10 7 8 4h4l-1-5-8-8-13-10-2-1zm-1081 1-1 2 4 10 4 5h3v-5l-6-9zm540 0-3 5-1 4 4-2 2-3v-4zm-554 2-1 5 2 4 4 1-1-6zm184 0-3 3 1 4 4 1 3-3-1-4zm-494 1-8 5 1 5 7 7h3v-16zm744 0-9 6-3 4v3l5-2 8-8 1-3zm-199 1-3 2 1 5h8l5-2v-2l-8-3zm-339 1-12 6-5 5 4 6 9 10 5 4 9-1 15-7-2-4-13-15-5-4zm419 1-5 4-1 4 2 2 5-1 5-5-2-4zm151 0-8 7-7 8 1 2 12-11 3-3zm530 0v4l9 7 21 12 13 6h5v-4l-14-9-17-10-14-6zm-1205 1-12 6-4 3 1 5 8 9 10 7 7 2 9-1 10-6 1-3-7-9-11-11-4-2zm310 0-1 5 4 4h3v-5l-4-4zm278 0-7 4v3h6l4-2v-5zm27 0-10 8-1 5 5-2 8-8 1-3zm-333 2 1 4 5 6 8 6 5-1-1-5-8-7-5-3zm83 0 1 7 3 5 3 1 4-3-1-5-7-5zm-172 1 1 9 6 11 3 3 4-1 1-4-7-11-7-7zm507 1-9 14 1 3 7-8 4-9zm450 0 2 4 3 2h4l-2-4zm197 0 1 6 11 11h2l-2-6-6-8-3-3zm-1471 3-16 8-29 17-47 30-16 11-18 13-19 14-14 11-16 13-11 9-15 13-13 12-10 9-37 37-7 8-10 11-9 11-14 17-13 18-12 17-14 22-12 21-12 23-11 25-9 24-8 27-6 28-4 29-1 17v28l2 23 4 23 6 21 8 20 11 21 10 15 10 13 10 11 7 8 18 18 5 2-2-6-11-17-9-16-9-19-8-24-5-21-3-21-1-14v-33l2-23 5-30 8-32 9-27 10-25 7-15 15-29 15-25 18-27 10-14 14-18 13-16 12-14 11-12 7-8 9-9 7-8 10-10 8-7 11-11 8-7 11-10 11-9 14-12 13-10 18-14 14-10 17-12 15-10 17-11 26-16 12-7-1-8-8-23-6-8zm303 0 1 6 5 8h2l-1-8-3-5zm89 0 1 6 6 9 1-4-6-10zm73 0-1 3 3 5 7 6 7 1 1-4-5-6-8-5zm65 0-3 4 2 4 4-2 1-3-1-3zm141 0-2 2 1 5 7-1 2-2-1-4zm100 0-11 11-1 3 5-2 9-7 1-3-1-2zm35 0-8 10-3 7 4-1 6-9 2-4zm611 0-2 4 10 10 16 11 4 2 4-1-1-6-9-9-13-9-4-2zm-1382 1-1 1v15l2 7 1 1h6l6-5v-6l-7-9-5-4zm816 0-11 18-2 7h3l7-11 5-11v-3zm15 0-10 19-2 5v5l3-1 8-16 3-9v-3zm389 0 2 4 3 2 4-1-4-4zm-662 1-1 1v5l1 1 8-1 2-3-5-3zm244 0-10 13-5 9 1 2 7-8 9-14v-2zm475 0 2 4 12 9 21 12 10 4h3l-1-5-9-6-15-8-16-9zm-769 2-2 4 2 3 5-1 1-4-2-2zm35 0-2 2 1 4 5 1 2-2-1-4zm316 0-3 4-3 10-1 11 1 5 4-1 4-10 1-6v-11l-1-2zm18 0-5 8-5 17v8l1 1h7l3-5 3-22v-6zm15 0-2 2-4 25v5l2 2h6l3-4 4-28-2-2zm20 0-3 3-3 22v12l2 1h9l3-3v-31l-3-4zm20 0-3 4-1 8v14l2 10 2 2 5-1 2-2 1-6v-20l-2-8-1-1zm19 0-2 2-1 4v28l3 4h13l3-3-4-31-3-4zm22 0-1 2v11l3 19 3 8 2 2h4l2-7v-31l-3-4zm-629 2v7l4 8 5 5 5 1 1-5-6-9-5-6zm499 0-8 16-3 8 1 5 5-2 5-10 3-11v-6zm-789 2-7 6-2 5v7l4 7 6 4 2-3v-25zm106 0-20 8v4l14 13 9 6h6l16-8 3-2-2-4-15-14-6-3zm92 0-16 6-1 2 14 19 4 3 6-1 14-7-2-5-9-12-5-5zm407 0-2 4 1 2 4-1 3-4-1-1zm599 0 6 7 18 13 17 10 5 2h3l-2-4-9-8-21-13-13-7zm-845 1-1 1 1 7 7 7 5 1-1-6-6-8zm171 2-4 3 1 4 5 1 4-4-2-4zm-256 1 1 8 4 8 6 6h2l-1-7-5-10-4-5zm156 0-1 1v7l5 1 1-6-2-3zm162 1-7 4-1 3 1 2 7-1 3-4v-4zm786 1 1 7 7 9 9 7 2-1-2-5-8-11-6-6zm-899 1-3 2v7l4 1 3-4-1-5zm34 0-1 4 3 4 3-1v-5zm677 0v3l16 10 22 15 7 4 3-1-5-5-15-11-25-14zm124 0-2 1 1 4 7 7 16 11 8 4h5l1-4-7-8-13-9-10-5zm-695 0-5 3-6 7-1 3 3 1 8-7 3-4-1-3zm25 1-9 6-6 5-2 3v3l5-1 8-6 8-8v-2zm-631 1-2 2v26l6-2 12-8 2-3-1-4-9-8-6-3zm539 2-3 3v6l4 1 4-5-1-4zm108 0-4 5-1 5 3 2 5-5v-7zm509 1-29 8-37 8-35 6-41 5-26 2-34 1-19 2-4 2-4 11-4 23v6l42-1 58-2 44-3 28-3 28-5 34-8 31-9 18-7 1-4-8-8-18-12-18-11zm-1e3 2-17 8 1 4 10 13 7 6h7l10-6 2-2-1-6-11-13-5-4zm-95 1-11 5-8 5 1 5 16 16 6 4 6-1 12-7 5-4-2-4-15-15-6-4zm191 1 1 5 6 9h2l-2-7-5-7zm61 0 4 9 5 8 5 2 1-5-6-8-6-6zm82 0-1 2v6l2 2 4-1 2-2-1-6zm130 0-7 5 1 2 8-1 2-2v-4zm-566 3-2 2-1 4v8l3 9 9 10h3l1-3v-11l-2-10-4-6-4-3zm271 0-1 3 7 14 4 5 5 1 1-1-1-7-5-10-5-5zm264 0-5 5v4l6-1 3-3-1-5zm68 0-2 5 5 3 3-2-1-5zm121 0-7 6-7 10-2 6 4-1 7-7 7-10v-4zm601 0 2 5 7 7 18 13 12 6 4-1-1-4-8-8-15-11-13-7zm-913 1v12l3 4h6l3-2v-5l-9-9zm70 0 1 3 4 3h4l-2-4-4-2zm40-1-8 5v3l6-2 3-3zm181 1-8 7-6 8 1 3 8-6 7-10v-2zm-365 4-1 1 1 7 6 8 4 3h3v-6l-5-8-5-4zm1060 1v3l7 8 10 9 6 4h3l-1-6-6-8-9-8-4-2zm-811 2-1 5 2 2 5-1 1-3-2-3zm167 0-7 8-5 10-1 5h4l7-9 5-11v-3zm18 1-6 8-7 14v5l4-1 7-11 5-14zm540 2v4l5 6 13 10 15 10 7 1 1-2-6-8-16-12-12-7zm-1146 1-18 9 2 4 9 11 7 7 6 1 10-5 8-5-2-4-14-15-5-3zm81 0-11 6 1 7 9 12 5 3 6-1 8-4 1-5-6-11-4-5-4-2zm143 0-2 3 4 6 8 7h5l2-2-1-6-5-6-4-2zm60-1-2 1 1 5 4 2 1-1v-5zm106 0-5 3 1 4 5 1 4-4-1-3zm85 1-13 13-2 3v3l6-1 7-6 4-11zm147 1-7 10-5 11v8h4l6-9 4-13v-7zm-175 1-9 6-1 3 9-1 5-6-1-2zm-148 1-3 2 1 5 5 1 2-5-3-3zm360 0-5 5-4 9-2 9v8l2 3 4-2 6-12 4-15-1-4zm-760 1-16 8-1 3 11 9 9 8 6 4h8l16-10-2-4-13-11-9-6zm443-1-4 4 3 4 4-1 1-5zm31 0-2 1 1 5 4 2 1-1v-5zm266 1-6 8-5 11-1 7 3 4 5-1 4-9 4-13v-7zm629 0 1 6 7 7h2l-2-4-6-9zm-1456 1 1 6 8 14h2v-10l-5-8-3-2zm43 0-1 7 1 5 4-1 3-4-2-5-2-2zm300 1 2 6 5 10h2l-1-6-6-9zm-13 1-1 5 7 11 5 6h2l-2-6-7-13zm268 0-2 2 1 5 5 1v-5zm88 0-9 6-9 10v3l7-1 10-8 4-6-1-4zm179 0-5 5-4 10-2 12 2 5 4 2h5l3-8 2-13v-11l-2-2zm18 0-4 3-3 20v9l4 4 8 1 2-3v-29l-2-4zm431 0-1 3 5 5 17 13 17 11 6 2 1-4-6-7-14-10-13-8-10-5zm-1331 0-14 8-45 30-17 12-19 14-21 16-16 13-11 9-14 12-11 10-8 7-15 14-32 32-7 8-11 12-9 11-11 13-13 17-11 15-18 27-15 25-9 16-13 28-11 27-9 28-7 28-5 31-2 29 1 28 4 27 5 20 7 20 6 14 8 15 9 14 10 13 12 13 10 10 10 7 3-1-2-8-14-24-8-16-6-18-3-15-2-20v-91l3-23 8-29 9-26 10-24 12-26 12-23 16-27 12-19 12-17 16-21 13-16 13-15 12-13 14-15 33-33 8-7 16-15 8-7 28-24 14-11 18-14 34-24 14-11 6-7-2-9-7-16-5-7zm1428 0-3 2 1 5 7 8 14 11 6 3h2l-1-6-8-10h-2l-1-3h-2v-2l-9-7zm-1015 3-2 2 1 5 8 8h3v-8l-3-5-2-2zm190 1-4 4 1 4 4-1 1-1v-5zm320 0-5 5-2 5-1 7v12l3 5 2 1h6l4-4 1-5v-16l-3-9zm20 0-3 2-1 3v29l2 4 8 1 4-4 1-5v-22l-2-6-3-2zm24 0-4 2-1 3v27l2 5 4 3 6 1 3-2 4-32-1-6-2-1zm-488 1-1 5 3 4h4v-5l-5-4zm-220 2-13 10 2 4 11 12 3 2h8l10-6-1-4-8-11-5-6zm254 1-3 4 1 5 4 1 1-1v-8zm12 0-1 2v6l4 2 3-5-4-5zm31 0-3 3v5l2 2h3l1-2v-6l-1-2zm13 0-2 3v6l4 1 3-3v-6zm149 0-6 4-5 9v4l4-1 8-7 5-7-1-2zm274 0-3 4-4 31 3 4 5-2 5-10 2-10v-15l-3-2zm-820 1-14 7-1 5 6 8 8 8 7 5 6-1 11-7 4-3-2-4-17-17-2-1zm1144 0 3 5 13 12 14 11 9 5 6 1v-3l-5-5-17-13-15-10-5-3zm167 1m-1158 2-1 3 8 15 6 5 4-1v-7l-5-10-6-5zm69 0 1 6 6 9h2l-3-9-5-6zm245 0-5 5 3 1 6-3 1-3zm-561 3 1 10 4 17 3 5 4 1 10-6 6-5-5-5-14-11zm1337 0-1 4 6 8 11 11 11 7 4-1-2-5-7-8-8-8-10-7zm-1378 1-1 5 2 2 5-1-2-5zm422 0-1 7 4 4h6l1-2-7-8zm163 0-3 3v4l5-1 1-5zm672 1-36 12-27 7-34 7-35 5-42 4-20 1-94 1-3 7-4 20v11l3 4 15 2 23 1h55l57-2 39-3 17-2 34-7 42-11 28-9 19-7 10-6 2-4-7-8-13-11-14-10-4-2zm175 0 2 5 8 11 7 7h2l-1-5-10-13-6-5zm-1404 1-5 4 1 5 5 4 4-1 1-6-2-6zm689 0-6 5-6 8-2 4 1 4 6-4 6-8 3-6v-3zm-163 2-5 6 1 3h6l5-5-2-4zm67 0-2 2 1 4 5-2 1-4zm115 1-5 4-8 13-2 7 4 2 8-7 5-9 2-5-1-5zm-285 2-1 4 6 6 4-1-2-5-3-3zm-259 1-10 6-2 5 7 8 7 7 6 3 7-1 8-6v-6l-9-10-9-6zm76 0-8 5 1 6 7 10 5 5 6-1 6-5-1-7-6-10-4-3zm81 0 1 4 5 8 4 1-2-6-7-7zm51 0 1 8 4 8 3 2 3-2-1-7-6-8zm69 0-1 1v7l4 1 2-2-1-6zm26 0-3 4 1 3 5-1 1-5zm14 0-2 2v7l5 1 3-3-1-5zm98 0-3 5 1 5 3-3 1-7zm148 3-8 7-5 10-1 5 3 3 4-1 5-5 6-12 1-5-2-2zm-744 1-7 5 1 6 11 11h1l-1-10-2-12zm90 0-8 5-4 5 2 6 10 9 9 6 6 1 13-8 2-4h-2l-2-4-12-12-6-4zm1262 0-2 1 1 4 7 8 15 15 9 6 4-1-1-5-6-8-14-14-9-6zm-591 2-6 7-3 7-1 5v7l4 2 5-5 4-7 4-10-1-5-1-1zm-444 1-1 5 4 9 5 5h5l1-2-6-10-4-5zm248 0-5 3-3 7 1 4 5-2 9-9-1-3zm52 2-5 4-2 5 2 1 5-3 2-3-1-4zm164 1-5 5-4 11v9l3 4 5-1 5-8 4-12v-5l-3-3zm-410 1-1 1v7l4 8 4 3 5-1 2-2-1-5-7-8-4-3zm52 0-1 1 1 7 2 2h3l-1-6zm991 0-1 4 7 9 9 9 6 3 1-4-7-11-8-8-4-2zm-1179 2-8 6-2 2 1 6 7 10 4 4h6l9-6 1-4-7-11-7-6zm566 1-4 5-5 12-1 10 4 5 6-1 5-7 3-11v-10l-4-3zm-336 1-3 4v3l3 1 3-2v-5zm53 0-3 3v6l1 1h6l4-5-1-4-1-1zm819 0-1 5 9 11 10 9 13 9h3l-1-6-11-12-12-11-8-5zm-1183 1-15 12 6 7 8 8 5 4 5 1 9-6 6-5-2-4-9-9-4-5-4-3zm485 0-6 7 1 5 5-1 3-7-1-4zm25 0-8 9-3 6 1 5 4-1 5-6 4-8v-5zm-186 1-2 2 1 5 4 1 6-3v-3l-5-2zm105 0-4 4-2 10 4 1 5-4 4-5-1-5zm237 0-3 8-3 15v7l3 3h5l5-5 4-9 1-4v-11l-5-4zm-524 0-3 2 1 8 7 10 4 3h5l3-5-2-6-4-6-7-5zm546 2-2 2-1 15-2 10 1 6 6 3 7-1 3-6 1-6v-14l-3-6-7-3zm-826 1-1 2v8l2 7 5 1 4-5-1-5-4-6zm-44 3-15 10-18 13-19 14-18 14-13 10-17 14-14 12-10 9-8 7-16 15-36 36-7 8-10 11-9 11-12 14-10 13-14 19-14 20-13 21-10 17-13 24-11 23-11 28-9 27-7 28-5 30-1 11-1 25 1 22 3 23 6 25 10 24 12 23 12 18 8 9 13 8 9 3 4-1-2-7-7-14-11-28-5-17-3-17-1-10v-47l2-26 4-25 6-27 6-21 10-28 11-26 8-16 11-21 16-27 20-30 13-18 11-14 18-22 13-15 24-26 31-31 8-7 15-14 11-9 11-10 10-8 32-26 14-11 10-8-2-5-13-21-5-6zm89 0-8 4-5 5 2 5 10 9 10 7 6 2 10-5 7-5v-2l-11-9-11-8-7-3zm291 0-1 1 1 10 5 8 1 1h6l3-2-1-8-6-8-3-2zm333 0-7 6-6 9-1 7 5 1 5-3 7-8 3-7-1-5zm183 0-4 5-2 13v10l3 7 4 3h7l2-4 1-7v-18l-2-7-2-2zm-465 1v5l4 4 3-1-1-6-3-2zm135 0-4 4v8l3 4 5-1 4-5-1-6-4-4zm-119 3-1 2v6l3 2 3-2v-6l-2-2zm78 0-1 1v16l5-1 4-5-1-5-5-6zm106 0-7 8-2 5v5l2 1 6-4 8-8 1-6-1-1zm291 0-5 5-2 7v18l3 6 4 2h5l3-4 3-17 1-13-2-4zm22 0-2 5-1 5v25l3 5 5 2 4-4 3-16v-15l-4-5-4-2zm401 0 6 7 12 11 14 11 7 4h2l-1-4-7-8-8-8-13-10-5-3zm89 0-2 2 1 5 6 8 9 9 6 4h4l-1-5-7-11-9-10-3-2zm-1198 2-8 6-2 4 4 6 11 11 7 3 5-3 3-4v-5l-10-13-6-5zm71-1-6 6v8l7 10 6 3 6-1 2-3-1-7-7-11-6-5zm165 2-3 3 2 6 5 1 1-1v-6l-3-3zm262 0-6 4-6 9-3 6v4h8l8-7 5-9v-6zm-248 1-1 1v7l4 1 2-2-1-6zm483 0-4 10-3 16v10l1 2 4-1 3-7 3-14 1-14-1-2zm-611 3-1 5 7 14 6 5 5-5v-9l-4-6-8-4zm-206 1-10 7-2 5 9 10 7 6 6 2 8-1 6-5 2-3-1-6-8-8-10-7zm500-1-5 4-5 10v5h7l7-6 2-4-1-6zm104 0-7 6-7 14 1 7 1 1 7-1 6-8 3-10-1-7zm576 1-46 17-26 8-33 8-27 5-37 5-33 3-19 1-43 1-61-2-20-1h-12l-3 8-6 24v6l7 2 37 5 26 2 23 1h97l35-2 23-3 31-6 35-9 29-9 24-9 18-8 15-9 6-4-2-4-21-21-12-9zm-746 1-4 5-2 7v6l4 4 4-2 3-6 1-7-2-6zm-172 2-1 5 2 2 4-1-1-5zm-385 1 1 5 3 4h2l-1-5-3-4zm398 1 1 6 2 2h4v-5l-3-3zm994 1-1 1 1 7 8 10 11 11 6 4h3l-1-6-7-10-9-10-8-6zm-1365 1-3 3v5l4 2 2-2-1-7zm490 0-4 5-2 4-1 7 2 3 5-1 4-5 1-7-2-5zm234-1-8 3-5 5-3 8v9l3 3 5-1 6-9 5-12v-5zm-712 2-1 5 3 14 4 8 5 2 10-4 3-3-1-4-7-8-10-8zm216 2-7 6 1 7 10 13 6 1 5-4 2-3v-6l-8-11-4-3zm388 0-7 6-5 8-1 4 3 3h6l6-5 6-11-1-5zm800 0 1 5 6 11 6 7 3-1-4-10-8-11zm-1129 1-3 3v7l5 10 5 4 3 1 3-2v-9l-5-10-4-4zm-133 1-10 6-1 6 7 8 11 7 7 1 9-5 1-5-7-8-9-9-2-1zm242 0 1 7 4 3h4v-5l-5-5zm343-1-4 4-4 11-1 3v10l3 3 7-1 4-6 2-5 1-12-3-5zm-289 2-2 3v6l2 3h5l4-5-2-5-3-2zm-113 2-1 5 7 8 4 1-1-7-4-6zm213 1-6 5-2 4 1 5 2 2 4-1 3-8v-6zm212 1-5 5-4 12-1 11 3 4 7 1 5-4 4-14 1-10-3-4zm-123 0-5 3-6 8-3 6 1 5 5 2h5l6-10 3-7-1-5zm-571 2-10 6-2 5 10 10 14 10h6l10-8 3-2-2-4-14-10-9-6zm1283 0-2 2 1 5 8 10 9 10 9 7h5l-1-7-8-11-7-7-1-2h-2v-2l-7-5zm-969 1-3 4-1 5 2 7 4 4h4l1-5-4-15zm-111 3-5 5-1 6 4 10 7 6 5-1 2-3-1-8-8-14zm236 0-6 9-1 6 4 4 4-1 3-7v-11zm278 0-4 4-3 10v14l3 5 7 1 4-5 4-13 1-12-4-4zm-578 2-7 4-3 3 1 5 7 8 8 7 4 1 7-6v-6l-7-9-6-6zm452 1-7 6-5 10-1 6 4 3 7-1 6-7 4-8v-6l-4-3zm-239 2-5 7 1 4 2 2h6v-11l-1-2zm49 0-3 4-1 3v9l3 4 4-2 2-5v-9l-3-4zm111 0-4 10v3h2l5-9v-4zm227 0-3 7-2 13v12l13 4 4-3 3-17 1-12-10-4zm-677 1-9 6-6 5 6 7 10 9 5 3h6l9-6 3-3-2-4-7-8-9-8zm1279 0 1 6 7 12 8 8 3-1-3-9-8-11-5-5zm-1087 1-2 3 4 10 5 6h4v-6l-4-8-5-5zm-353 1-15 11-13 10-14 11-11 9-13 11-11 9-11 10-8 7-15 14-22 22-7 8-8 8-7 8-11 12-9 11-11 12-9 11-14 19-8 12-15 23-12 20-11 19-14 27-10 22-10 26-9 28-7 30-4 25-2 20v34l3 25 5 21 6 18 8 17 10 17 9 10 9 4 9 2h10l-1-7-7-19-6-21-4-21-2-16v-48l4-30 6-29 7-24 8-24 11-27 11-24 14-27 14-23 22-33 13-18 14-19 11-13 12-14 14-15 7-8 16-17 14-14 7-8 18-18 8-7 11-11 8-7 13-11 17-13 4-5-10-19-7-13zm464 0v8l4 1 2-2-1-5-1-2zm246 2-5 5-6 13-1 5 4 3 7 2h4l7-15 1-8-5-4zm155 0-3 4-3 14v14l3 3 2 1h9l4-3 1-3v-21l-3-7-3-2zm504 0 1 6 10 14 11 12 5 4h3l2-3-1-5-6-8-9-10-11-9zm-975 2v9l3 11 4 6h3v-11l-4-11-3-4zm-364 1 1 6 4 6 5 1 1-4-6-8zm40 2-4 3 1 7 6 8 9 9 8 4 6-2 5-6-1-5-5-6-11-8-10-4zm209 0-4 5 1 7 6 9 5 4 5 1 8-3-5-10-9-11-4-2zm354 0-6 5-4 9-1 5 4 1 8-9 4-7-1-4zm260 0-5 3-2 5v21l4 7 5 2 4-1 2-5 3-20v-10l-3-2zm-324 2-4 5-3 8v7l7-6 4-7v-6zm348 0-4 5-2 10-1 16 2 9 4 1 4-6 4-14 2-15-3-5zm-707 2-4 4 1 7 8 10 9 6 7-1 2-2v-8l-7-10-5-4-4-2zm123 0-3 3 1 5 5 8 8 7 5-1-1-7-6-10-5-5zm402 0-6 5-4 9-2 9 2 4 4 2 5-1 5-6 5-13v-7l-3-2zm-217 1-5 5-1 3v7l4 1 4-8 1-7zm419 0-3 5-2 16h3l4-14v-7zm417-1-29 14-24 11-25 9-36 10-36 7-27 4-31 3-44 2h-26l-46-2-66-5h-22l-7 3-4 5-9 24v3l32 6 43 7 23 3 36 3 30 1h34l34-1 40-3 42-6 33-7 30-9 21-8 18-8 22-12 25-16 4-3v-2h-2l-2-4-11-11-7-8-10-9zm-801 2-3 6 1 3 5-6v-3zm878 0-1 1 1 7 7 11 9 10 5 1 1-5-6-11-9-11-5-3zm-998 2-2 2 1 8 3 6 4 1 1-2v-11l-3-4zm49 1-3 5v11l2 4h3l3-7-1-9zm170 1-6 5-5 8-1 9 5 3 6-5 8-14-1-5zm-519 1-9 6-4 3v3l13 10 11 7h8l9-6-1-5-9-9-10-8zm397 1-4 6 1 4 4-4 1-6zm55 0-5 7-2 7 1 7 4-2 7-10 1-8-1-1zm173 0-6 5-4 9v12l4 4h6l6-8 4-11v-7l-3-4zm-379 1 2 13 1 7 4 2 4-3-1-7-6-10zm-327 2 5 19 6 9 4 2 7-1 3-2-1-5-7-8-7-7-8-7zm208 3-6 4-1 5 7 8 9 8 5 1 4-3 1-5-4-8-9-10zm59 0-3 4v6l7 13 3 3 4-1 1-7-3-10-5-8zm352 0-5 5-8 15 2 4 4 2h7l5-4 6-12v-5l-3-3-5-2zm113 1-5 3-4 6-4 15v6l7 3h8l4-4 3-12v-12l-3-4zm636 1-2 3 1 5 6 10 13 16 4-1-1-7-10-16-8-10zm-1e3 1-2 3v8l3 10 4 2 1-1v-13l-2-7zm-229 1-8 6 1 7 15 15 3 2 5-1 7-8v-5l-9-10-8-6zm354 1-5 10v9l4-1 4-5 2-6-1-6zm-45 1-3 4-2 6-1 9 2 2 4-6 2-9v-5zm309 3-5 3-4 13-1 5v8l5 4 9 2 4-4 4-24-1-6-3-1zm-700 1-8 8-1 4 7 8 11 10 3 2h7l7-8-2-6-14-15-4-3zm495 0-5 8-1 6 5-5 4-9zm864 1 1 6 6 11 3 2 1-4-4-9-5-6zm-852 1-8 16v3l4-2 6-10 1-7zm81 0-8 7-4 8v9l5 3 7 1 5-5 6-17-1-5zm-455 1-5 4-2 6 4 8 7 7 6 3 6-1 2-2v-6l-7-11-7-7zm61 0-3 3v7l6 12 6 5 5-1 1-1v-7l-5-10-7-8zm151 0-3 3 1 7 4 4 1-1v-10zm57 1-3 4-1 9h3l4-8v-5zm-46 1v15h3l3-6v-6l-2-3zm368 0-3 3-4 18v9l4 4 5 2h7l3-5 3-19-1-8-4-3-3-1zm573 2 1 7 7 11 9 12 6 6 3-1-1-8-6-11-11-12-5-4zm-1379 0-9 6-14 12-12 11-10 9-17 16-15 15-8 7-17 17-7 8-15 15-7 8-11 13-13 16-9 12-14 19-18 27-12 19-12 21-10 18-11 23-12 28-10 28-9 32-6 29-3 23v44l4 26 6 23 8 22 6 10 6 5 9 3h24l-1-7-6-18-3-16-2-18-1-20v-20l2-31 3-19 9-36 12-36 12-29 9-20 20-38 15-25 14-22 12-17 10-14 10-13 11-14 9-11 24-28 15-16 16-17 14-14 8-7 10-10 8-7 9-9 2-1-1-4-12-18-7-9zm325 1-1 1 1 7 4 6 6 8h2l-3-12-4-8-2-2zm-183 3-9 6-2 2 1 6 11 11 8 5h6l7-6-1-5-4-6-11-11zm551 0-5 5-6 15 1 5 5 4 2 1h7l4-5 4-10 1-10-3-3-5-2zm140 0-4 6-2 11v13l3 6 4 2h6l3-4 4-15v-15l-5-4zm-225 2-8 9-4 8 2 4 6-1 7-6 3-6v-6l-1-2zm-111 2-3 5-2 7v10l3-1 4-10v-8zm51 0-7 8-3 9 3 1 5-4 5-8 1-6zm312 0-3 3-3 14v19l5 5h6l3-6 2-11v-17l-4-5zm-328 1-3 4-1 5 4-2 2-3-1-4zm900 1-1 2 8 16 6 7 3 1-1-8-6-11-5-6zm-978 1-3 8-1 3v7l2 2 4-1 1-9-2-10zm-395 1-5 5 1 7 6 8 11 8 7 3 5-1 2-2-1-6-7-9-10-10-5-3zm199 0-5 4 1 5 6 8 7 7 7 1 1-3-3-9-7-10-5-3zm52 0-2 2v7l6 12 4 5 5 1 1-5-4-11-7-11zm55 0-1 7 4 7 5 2v-7l-3-8zm15 0v6l3 3h3l-2-6-2-3zm987 0-21 14-16 9-16 8-19 8-22 8-36 10-34 7-26 4-21 2-18 1h-90l-51-3-37-4-32-5-29-5h-7l-7 10-6 14-2 10 9 4 30 8 43 9 44 7 34 4 23 2 19 1h67l39-3 35-5 29-6 29-8 23-8 21-9 20-10 19-12 16-12 10-9 7-7-1-5-7-10-12-14-4-5zm-649 1-4 4-7 18v5l6 4 9 1 5-5 4-13-1-8-7-5zm-307 1v16l2 5 3 2 2-2v-7l-4-13zm474 1-3 3-4 11-2 16 2 7 3-3 6-14 4-15-1-4zm-694 1-6 7 2 5 8 8 10 7h6l4-4 1-5-3-5-8-9-7-4zm436 0-6 7-4 10 2 5 4 3 8 1 5-5 5-10v-6l-5-4-2-1zm-65 1-6 7-3 5v7h4l4-5 3-8v-6zm-96 3-1 1v7h3v-7zm-349 4-5 5-3 4 2 6 11 10 9 6 7-1 7-7-1-4-4-5-11-9-7-5zm237 0-1 5 2 8 4 9 2 3 3-1-3-14-4-8zm392-1-5 3-4 9-2 8v11l11 3h6l3-4 3-14v-8l-2-4-9-4zm-172 2-3 5-1 4 4-2 3-6zm-52 2-4 6-3 12v3l4-2 6-10 2-7-2-2zm130 0-5 6-4 11v6l4 5 2 1h7l7-6 3-8-1-9-5-4zm769 0 1 5 6 11 9 11 5 1-1-7-5-9-9-10-2-2zm-1179 0-4 4-1 7 6 10 9 8 5-1 1-2v-7l-5-10-6-7zm54 0-4 3 1 5 7 11 9 8 3-1-1-7-7-13-7-6zm475 5-4 4-3 9v17l4 5 5 2 7-1 3-4 3-11v-14l-2-4-10-3zm-597 1-7 6-2 3v5l7 7 10 7 4 2 6-1 5-6-1-5-11-12-8-6zm303 0-3 9-1 5v9h2l4-13v-10zm-430 1 1 4 9 14 8 7 3-1-1-7-7-8-7-7-3-2zm543 0-7 8-3 7v6l3 1 6-5 5-9 1-6-1-2zm-202 1-1 2 1 11 4 4v-10l-2-7zm12 1-1 3 5 13 2 1v-12l-3-5zm89 4-4 8v9h2l4-9v-8zm189 0-4 3-5 15v8l5 4 5 2h6l5-8 3-12v-7l-8-4zm-239 1v18l2-1v-16zm361-1-4 2-3 10-2 11v12l5 3h11l4-5 2-7v-18l-3-5-9-3zm-774 3-8 7-10 9-10 10-8 7-25 25-7 8-10 10-7 8-11 12-9 11-10 12-13 17-10 13-16 23-13 20-12 20-12 21-9 17-13 28-13 33-10 31-7 28-5 30-2 24v25l2 22 5 25 6 18 4 6 4 2h21l9-3 3-4v-12l-2-13-1-14v-25l2-30 4-31 5-24 8-27 11-31 10-24 7-14 9-19 11-20 13-22 15-24 14-20 10-14 12-16 11-14 13-16 11-13 12-14 11-12 9-10 11-12 11-14-4-9-6-11-7-9zm68 0-6 6v5l6 7 13 10 6 3 6-2 4-7-3-5-7-7-14-10zm132 0-9 7-1 5 9 10 8 6 6 1 3-3v-7l-9-13-5-6zm53 0-1 1v6l6 9 5 6 5 3 5-1-1-7-7-10-4-5-3-2zm1131 0 1 7 10 16 6 7 5 1-1-8-6-11-7-9-3-3zm-1081 4-1 1 1 9 6 11 5 5h2l-1-8-9-17zm281 0-5 8-3 7v6l9 8 3 2 5-1 6-13 1-8-5-5-6-4zm-63 1-7 8-3 6v3l5-1 6-9 1-7zm282 2-5 3-4 13-1 6v11l5 4 9 2 3-4 4-24v-8l-3-3zm-125 1-3 3-5 18v7l5 5 9 4h5l3-9 1-5v-14l-5-5-6-4zm752 0 1 6 4 7h3l-3-9-3-4zm-1304 1-7 6-1 5 7 8 11 9 4 2 7-1 4-6v-5l-8-8-13-9zm406 3-5 7-2 7 4-2 5-9v-3zm841 0-10 9-11 9-12 9-15 9-15 8-28 12-36 12-28 7-30 6-21 3-22 2-20 1h-56l-37-2-34-3-27-3-41-6-36-7-29-7-16-4h-5l-14 28-3 5v3l16 5 50 14 44 11 35 7 31 5 28 3 30 2h82l38-3 35-5 36-8 26-8 27-11 25-13 21-14 16-13 13-12 12-11 7-6-2-5-11-15-9-13zm-1021 1v7l2 4 3-1-1-7-2-3zm474 0-2 1-4 18-1 5v9l3 5h5l5-8 5-20v-7l-2-2zm-437 1v10h2l1-2v-7zm-150 1-3 2 1 6 8 10 9 6h4v-6l-6-9-6-7-4-2zm-190 4-3 3 2 5 6 7 12 9 6 3h5l1-4-4-6-11-11-10-6zm240 0-1 4 6 10 7 8 4-1-3-9-6-9-3-3zm52 0v7l5 10h3l-2-10-3-6zm206 0-8 9-5 10 1 4 4-2 7-7 5-9-1-5zm64 0-4 5-5 12v7l9 8 4 2 5-1 5-12 2-7-1-6-9-7zm237 0-5 10-1 4v7l3-1 4-9 1-3v-8zm-416 2v11l2-1v-10zm274 0-3 4-2 9v13l5 8 4 2 7-1 4-8 1-4v-16l-5-5-5-2zm-531 1-4 3 1 5 11 11 8 5h6l5-5-1-6-12-10-6-3zm226 3v10h2v-10zm1020 0 1 8 6 10 4 4h2l-1-7-4-9-5-6zm-1315 4-6 5-1 6 7 8 12 9 7 2 7-6 1-4-8-8-13-10zm118 1-4 3 1 5 7 8 8 7 6 3 4-1 1-3-6-9-9-9zm512 1-3 3-4 17v12l6 5 10 5h2l3-12 2-12-1-9-5-5-6-4zm-405 1 1 6 6 12 3 2-1-7-7-13zm-54 1-1 4 4 8 10 11 5 1v-6l-8-11-8-7zm362 0-4 4-6 18 1 5 8 7 5 2 4-1 5-8 3-9 1-7-4-6-10-5zm-134 2-6 7-5 8v3l3-1 7-10 3-7zm50 0-6 7-1 9 4-2 4-8 1-6zm13 2-4 5-4 9v8l4 5 9 6 5-1 5-8 3-9v-5l-5-6-8-4zm-540 2-7 8-18 18-7 8-12 13-9 11-10 11-9 11-11 13-9 11-10 13-8 12-13 20-13 21-9 15-12 21-7 12-11 23-10 22-11 28-8 25-8 31-5 26-3 26v38l3 21 5 21 14-1 25-4 3-2 1-6v-37l1-21 3-24 4-22 6-25 8-26 10-28 11-26 8-18 10-19 7-14 13-23 15-24 20-30 13-18 13-17 16-20 13-16 12-14 8-10 1-6-10-14-11-14zm17 0m115-1-7 4-1 1v5l5 6 12 9 8 3 6-1 1-1-1-7-6-8-10-9zm1251 1v7l5 12 7 10 4 2-1-10-9-17-3-4zm-1365 1 2 5 11 13 4 1-2-5-9-10h-2v-2zm276 2-1 4 6 9h3l-3-10-3-3zm441 0-3 3-3 20v8l4 5 9 4h5l2-5 4-23-1-7-5-3zm-249 1-5 8-3 9 5-4 5-9v-4zm-305 3-3 3-1 7 7 9 10 7 2 1h6l1-5-6-10-9-9-5-3zm56 0-2 2 1 6 8 10 9 6 3-1-1-6-8-11-7-6zm401 0-4 9-4 16 1 6 6 5 8 4 5-1 3-8 4-14v-7l-6-5-11-5zm-581 3-4 5 2 5 5 5 9 8 10 6 5-1 2-2v-6l-11-11-10-7-4-2zm441 1-4 5v6l5-1 3-5-1-5zm-215 1 1 8 8 12 3 4 2-1-8-17-4-6zm482 1-4 5-5 23 1 7 6 4 6-1 5-6 3-18v-11l-6-3zm-195 2-5 5-5 12v8l5 5 6 4h6l5-6 4-10 1-8-4-5-9-5zm-459 4-3 3-1 6 6 8 11 9 6 3 5-1 4-6v-5l-10-9-11-7zm679 0-3 3-3 10-1 15h4l6-10 3-8v-7l-3-3zm584 0-11 9-12 11-14 12-20 14-23 13-25 11-33 11-28 7-36 6-29 3-29 2h-74l-45-3-34-4-36-6-42-9-38-10-37-10-9-2h-7l-8 14-8 16 1 4 30 11 40 13 50 14 32 8 34 7 37 6 37 4 28 2h60l37-3 26-4 33-7 27-8 27-10 24-11 19-11 16-11 14-11 10-9 7-6 7-8 8-10 8-13 1-7-4-10-6-12-2-3zm-862 1-11 10-4 6 1 6 5 5 5-1 5-13 2-12zm-288 1-2 4 4 8 12 12 4 2 4-1-3-8-8-10-8-7zm443 2-3 7-4 14v8l7 6 12 6h2l6-27v-6l-6-5-8-3zm745 0 1 8 4 11 3 2-1-10-5-11zm-1138 3-1 5 7 10 7 7 3-1-7-12-8-9zm-110 1-5 5 1 6 8 7 13 9h5l2-3v-7l-8-9-10-7zm-121 1 2 5 9 11 10 9 5 2-1-7-9-10-9-8-4-2zm481 3-6 12-2 7 1 6 7 8 5 4h6l4-5 4-12 1-7-3-5-10-7zm74 1-5 6-6 17 2 5 8 7 8 4h4l4-11 2-10v-9l-5-5-10-4zm100 4-3 3-4 17v11l5 5 13 7 4-2 2-18 1-6v-8l-5-5-9-4zm-487 2-3 2 1 6 9 9 11 7 4 1 1-4-4-6-9-10-7-5zm-118 1-2 3 1 7 8 9 12 8 7-1 3-3-1-6-10-9-11-8zm171 1 1 6 8 10 7 7h2l-1-5-7-10-6-7zm-236 2-12 13-9 11-11 13-11 14-13 16-13 18-13 19-11 17-11 18-11 19-16 29-11 22-13 29-12 31-8 26-7 32-5 31-2 18-1 16v11l2 17 2 5 2 2h11l26-6 10-3 1-1 1-46 3-25 7-33 8-28 9-26 11-27 11-25 18-36 13-23 10-17 12-19 8-12 11-16 13-18 16-21 11-15-2-4-11-14-11-12zm1375 0-1 3 8 18 3 2 1-3-3-14-4-6zm-1254 4-5 4-1 7 9 8 14 8h5l2-3-1-8-5-5-9-8-6-3zm476 1-3 9-3 15v7l5 5 10 6h6l3-5 3-15v-10l-5-5-13-7zm103 1-3 3-3 12-1 16 3 7 3 2h8l4-4 3-12 1-14-2-6-8-4zm-242 2-7 9-5 8 2 5 9 8 5 2 5-6 4-9v-11l-6-5zm-233 1-1 1 1 7 7 8 7 6 6 3 1-3-7-11-9-9zm301 1-4 5-5 14 1 6 7 8 6 5 4 1 5-4 4-11 1-9-3-7-10-7zm-357 3-3 4 1 5 7 7 12 7 6 1 3-2-2-6-7-8-10-7zm-119 3-2 2 1 4 7 8 11 9 8 4 4-1v-5l-9-10-13-10zm675 0-2 5-4 26 1 4 11-10 5-7 2-5v-7l-5-5-2-1zm642 0-10 15-13 15-14 14-14 11-16 11-21 12-19 9-26 10-26 8-25 6-36 6-28 3-12 1-26 1h-30l-40-2-40-4-39-6-40-8-40-10-37-11-44-15-21-7h-5l-9 10-9 16-1 7 6 4 34 14 37 14 35 12 37 11 40 10 34 7 37 6 36 4 28 2h57l36-3 37-6 29-7 25-8 25-10 19-9 22-13 14-10 11-9 10-9 9-8 7-8 12-15 9-15 6-12 1-3v-8l-9-21-1-2zm-740 4-3 16-1 16 2 5 7 6 5 2h7l2-2 3-21v-9l-5-5-14-8zm-521 3-6 5v6l7 8 9 6 5 2h8l4-4-2-5-8-8-12-9zm107 3 1 6 10 10 8 5h5l-1-5-9-9-11-7zm270 0-6 7-4 11v8l6 7 13 10 2-1 6-18 1-10-4-6-8-7zm73 1-4 8-4 16v6l4 6 10 7 6 1 4-4 4-16v-8l-4-6-10-8-3-2zm-400 4-4 4 1 6 9 8 12 7h6l2-2-1-7-7-7-12-8zm-109 4 2 4 7 8 6 6h2l-2-4-11-12zm390 0-9 16-1 9 7 9 8 8 3 2h3l8-18 2-9-7-8-12-9zm221 1-3 19v16l5 5 5 4 5 1 4-4 5-20v-9l-5-5-13-7zm-627 2-9 11-13 18-12 17-14 20-13 20-12 19-14 24-13 24-12 24-13 30-11 30-10 31-5 21-5 29-3 26-1 14v11l2 7 12-2 36-10 2-12 5-38 6-29 8-29 11-33 15-36 13-27 8-16 15-28 16-27 13-21 14-22 11-17-1-4-25-25zm172 4-1 5 7 8 13 8 5 1 2-1-1-5-10-10-10-6zm-115 2-2 2v7l8 8 15 9 6 1 2-3v-5l-7-8-16-10zm1304 0-1 2 3 9 3-1-1-7zm-879 3-4 5-5 15v8l7 9 9 8 5-1 4-8 4-14-1-6-8-10-7-6zm72 0-2 7-3 19 1 9 8 7 11 7 3-1 5-24v-12l-5-4-16-8zm-443 3-4 3v5l7 8 13 9 4 2h7l2-5-3-6-8-8-11-6zm551 2-3 1-3 6-3 14-1 10 1 2 5-2 10-11 7-11-1-5-10-4zm-448 2 1 4 7 8 12 9h3l-2-4-9-10-9-7zm-55 4-1 4 7 8 10 7 8 4h5l1-4-7-8-15-10-2-1zm-117 4 2 4 10 9 13 8 3 2h4l-1-4-7-7-15-10-4-2zm393 0-3 5-5 13-1 9 3 5 8 8 9 6 4-1 5-13 2-8v-8l-5-6-13-9zm256 4-8 7-2 3v3l5-1 7-7 1-5zm-180 1-4 14-3 15 1 7 8 7 9 6 7-1 4-12 1-5v-13l-8-8-13-10zm-306 1 1 4 5 5 10 8 9 3-2-4-7-7-14-9zm383 0-3 4-3 14v13l5 6 14 10h2l7-30-1-7-7-6-9-4zm-490 1-4 4-1 5 2 5 11 7 9 4 8 1 4-4-1-5-8-6-19-11zm277 1-6 7-2 9 3 2 5-6 2-6v-6zm15 0-6 12-3 9v9l8 11 10 11 3 1 9-23v-9l-9-11-10-10zm-243 4-2 6 7 8 11 8 8 4h6l1-5-6-8-10-7-11-6zm-111 3-8 7-9 12-13 20-12 20-20 36-19 38-15 33-11 26-10 28-8 30-9 40-3 18v9l3 1 14-4 31-12 4-2 4-14 12-48 11-37 8-24 8-19 9-20 12-25 16-32 12-22 17-29 4-6-1-5-17-17-3-2zm161 6-2 1 2 5 7 6 14 7h6l-2-4-8-7-11-7zm423 0-3 8-5 19 1 4 10-5 10-8 4-4-1-4-9-8-3-2zm-538 6-1 5 7 7 15 10 9 3 3-2-1-5-7-6-16-9zm388 0-5 3-5 12-2 8 1 7 7 8 13 11h3l7-21 1-10-4-6-10-10zm-334 4-2 3v6l9 9 9 6 8 3 6-1 1-5-6-8-11-7-11-6zm410 0-4 4-3 12-1 13 2 5 8 8 6 4 4 1 5-5 4-17v-12l-5-6-10-6zm-189 1-6 4-22 22-7 8-5 5 1 4 15 16 5 5 5 3 6-13 13-36 1-4v-12l-2-2zm-116 2v3l11 8 2-1-7-8zm-55 3-1 4 7 8 10 6 10 4 4-1-1-5-8-7-14-8zm234 2-4 8-4 12-1 9 4 7 20 20 2-1 6-24v-10l-4-6-8-9-8-6zm234-1-5 3-4 9-2 6 5-2 7-7 3-6-2-3zm-580 7-5 5-7 10-15 25-12 22-11 23-13 28-11 26-11 28-12 34-8 28-3 14-2 16v5l5-1 22-11 16-9 9-7 4-5 8-29 12-36 14-37 11-26 11-24 14-29 10-22 2-5v-8l-10-7-13-8zm158 1v3l14 9 13 7h2v-2l-17-12-10-5zm142 4-5 8-6 14-8 22-2 8v6l4 5 16 8 5 2 4-1 7-18 10-30-2-4-18-18zm205 0-3 3-4 16 1 5 3 1 10-4 9-7v-5l-7-6zm-80 1-6 22v10l4 6 8 8 6 3 5-1 4-6 5-22-3-6-9-7-12-7zm-376 3-1 3 5 6 15 9 9 3 6-1 1-5-8-6-16-8-3-1zm506 0-7 6-1 5 5 3 5-1 3-11-1-2zm-449 0-6 4-1 4 5 5 16 7 9 3 5-1 1-2-7-8-14-9zm1172-57-8 16-7 10-11 13-20 20-11 9-13 11-16 11-12 7-22 10-24 9-26 8-29 7-30 5-28 3-14 1h-68l-38-3-38-5-44-8-38-9-36-10-43-14-35-13-28-11-22-9-5 1-7 9-10 19v3l11 8 22 11 30 13 27 11 33 13 29 10 30 9 44 11 40 8 47 7 32 3 28 1h23l25-1 37-4 33-6 30-8 26-9 25-11 19-10 21-14 13-10 14-12 8-8 18-22 10-16 8-15 8-21v-12l-6-16zm-1127 61-1 5 7 6 14 6 10 2v-3l-13-8-15-8zm429 4-8 6-4 4 1 4 1 1 7-1 3-3 2-6v-5zm-201 5-3 9-4 15v12l7 8 8 4 9 1 5-3 3-17v-7l-6-9-14-11zm-340 3-13 24-19 38-16 37-17 44-12 35-5 20v5l7-1 21-11 17-11 10-9 5-10 8-25 12-34 12-29 16-35 10-20-2-4-23-11-7-3zm496 0-2 6 2 3 6-1 2-2-1-5zm-443 4-2 2 1 4 7 6 14 7 6 2h5l3-3-1-5-16-8-13-5zm51 0-1 5 4 5 10 5 13 4h7l-1-4-9-6-16-8zm379 0-12 9-7 4 1 5 2 2h6l6-4 5-8 1-8zm-60 3-4 2-2 4v10l1 1 9-1 10-4 2-3-7-6zm-268 5 2 4 3 2h3v-3l-6-3zm139 1-3 3-6 16-5 18v6l1 1h17l12-4 7-6 1-2v-7l-4-7-9-10-7-7zm215 2-14 7-8 9v5l2 2h6l9-6 5-4 5-8-1-4zm-463 8-6 7-14 28-13 30-13 33-8 22-3 11v7l5-1 14-8 22-15 14-10 15-39 20-50-1-3-20-9-8-3zm51 0-1 1v5l8 5 21 7 5-1-1-4-5-4-12-6-9-3zm50 0-1 5 2 2h7l1-3-3-4zm229 4-4 6-1 6 2 2 11-2 3-2-1-5-5-5zm877-51-6 5-8 14-12 19-10 13-11 12-10 10-11 9-18 13-15 9-14 8-27 12-28 10-30 8-26 5-28 3-39 2h-48l-38-2-30-3-38-7-40-9-37-10-38-12-32-11-28-11-35-15-37-17-7-3-5 1-12 13-5 7-1 7 7 8 13 8 32 17 22 11 24 11 31 13 29 11 44 15 39 11 40 9 26 5 35 5 33 3 21 1h36l31-2 30-4 28-6 25-7 26-9 24-11 21-11 21-14 13-10 10-9 8-7 8-8 9-11 10-13 11-18 10-21 7-21 3-13v-11zm-814 53-12 5-13 6v1l13-1 13-4 4-4v-3zm88 1-10 9-3 5v3l4-1 9-10 2-5zm-387 8-2 2 1 5 4 1 3-3-1-4zm324 0-8 4-7 8-1 7h7l16-8 4-4-1-5-3-2zm-376 1-5 11-12 31-8 22-1 7 5-1 11-7 13-11 11-9 17-17 5-10-2-5-10-4-22-7zm309 4-10 5v1h12l2-2v-4zm-71 3-2 2 1 4 4-1 2-2v-3zm112 0-12 5v3l12 6 2-2v-11zm-65 4-1 2 2 1h6v-3zm116 2-5 5-4 8v6l5-1 9-6 6-7-1-4-2-1zm-78 2-2 3 1 6 3 2h9l1-3-6-7zm-19 4-20 3-3 2 1 4 7 2h14l6-3v-7zm73 4-10 3-3 2 1 4 6 5 3 2h5l3-6 1-9-1-1zm794-49-4 8-7 19-9 17-11 16-9 11-9 10-7 8-15 14-17 13-15 10-22 12-19 9-20 8-30 9-26 6-23 4-27 3-16 1h-59l-29-2-25-3-32-5-40-8-46-12-38-12-31-11-28-11-35-15-28-13-31-15-28-13-4 1-12 12-7 8-5 5 1 4 53 31 14 8 16 8 21 11 28 13 30 13 39 15 36 12 37 11 42 10 33 6 38 5 26 2h56l31-3 26-4 28-6 27-8 24-9 18-8 21-11 11-7 16-11 13-11 8-7 17-17 11-14 10-14 9-16 7-14 8-21 6-21 4-21v-10zm-832 58-15 2-6 4-2 3v6l2 2h20l6-3 3-9v-5zm-96 3v2l16 4h5l-1-3-10-3zm33 3-1 5 2 2h7v-4l-3-3zm24 0v4l2 3h3l1-4-2-3zm57 0-1 5 2 2h4l-1-5zm45 1-9 5-4 4v3l3 2h5l5-6 3-6v-2zm-164 7v2l17 7h9l-2-4-16-4zm128 6-7 3-8 7-3 6 1 4 2 1h7l10-4 5-6 2-9-3-2zm-90 1-5 2 1 5 10 6 11 3h6l3-3-1-5-5-5-13-3zm-42 4-1 3 5 5 5 4 12 5h4l-1-4-9-7-11-5zm84 0 1 3 15 11 5 1 2-6-1-6-2-2-4-1zm-204 1-1 2v18l2 2v-22zm82 5 2 4 9 11 3 3h2l-2-5-13-13zm115 2-2 4 4 4 3-2-2-5zm-128 1 2 6 12 20 9 13h3l-3-9-9-14-11-15zm983-22-13 25-10 17-13 17-12 14-17 17-11 9-17 13-17 11-25 13-28 11-26 8-28 6-25 4-33 3h-82l-44-4-39-6-42-9-42-12-36-12-29-11-23-10-36-17-52-26-22-12-18-10-20-13-5-1-11 15-8 10-5 6 1 3 26 17 17 11 23 14 21 12 29 16 38 19 29 13 27 11 35 13 27 9 43 12 36 8 36 6 27 3 29 2h42l37-3 31-5 25-6 27-8 21-8 25-11 22-12 14-10 13-11 15-14 14-14 9-11 7-8 12-17 10-17 9-19 9-27 5-21v-3zm-1073 26v8l3-1v-6zm133 1v4l12 12 13 9h4v-6l-6-7-14-9zm-67 2v6l2 3h4l-2-6-2-3zm110 1-2 2 1 5 7 6 17 8 4 1 2-2v-10l-3-5-8-3-8-2zm-121 1 1 12 6 27 1 2h2l-1-17-4-15-4-9zm27 3 3 10 15 33 5 9 4 2 1-7-5-13-9-16-11-17zm185 2-4 4 2 5 4 1 4-5-1-4zm-52 3-2 2v10l3 5 7 3h14l3-2 2-8v-6l-2-2-9-2zm-206 2-1 1-3 32-4 24-7 33-9 35-8 27-9 25-8 18v14l3 5 4-2 12-25 12-36 7-28 5-26 5-35 3-38v-23zm118 3 1 6 7 10 11 12 8 8 3 1 1-1v-7l-6-10-8-9-10-8-3-2zm-93 1-2 11-2 33-2 52-3 38-4 25-5 23v21l3 4 5-1 6-13 6-19 3-20 1-13v-88l-2-40-2-13zm219 4-4 6 1 4 7-1 3-2v-5l-2-2zm-81 1-2 2v6l4 6 7 7 10 6h7l3-6-1-7-9-7-14-6zm-175 2-10 42-7 26-11 36-9 28-6 26v9h2l7-14 8-21 10-32 8-32 6-31 4-30v-7zm-12 1v8h2v-8zm92 5 5 25 9 36 8 27 2 5 2-1 1-3v-25l-5-21-10-25-9-18zm136 8-4 3-1 3v13l3 3 6 2h8l5-4 4-9v-7l-5-3-7-1zm37 1-5 3-3 7-1 9 4-2 14-14v-2zm-126 1-1 1v7l8 17 10 17 7 11 2-2 3-13v-7l-4-8-14-15-8-7zm-142 2-5 12-10 32-8 30-2 11h3l5-12 6-19 8-30 4-19v-5zm185 6-3 9 1 8 8 10 13 10 6-1 2-6v-12l-6-7-19-11zm-146 11-4 16-4 29-3 34-2 35v10l2-1 6-25 4-30 2-23 1-22v-22zm-156 4-8 9h3l8-7v-2zm-18 3-12 12v2l4-2 9-9zm269 0v16l5 19 7 20 9 20 3 4h2l3-12 1-7v-13l-3-10-9-16-12-16-4-5zm-169 1-6 9-11 23-16 28-9 16-5 13v6l3-1 8-13 9-17 11-23 13-27 4-10zm264 3-7 2-3 6v10l2 5 6-1 10-9 5-7v-4l-6-2zm-296 1-4 6v3h3l3-6v-3zm16 0-9 14-10 17-8 17 1 3 7-9 8-14 11-23 1-5zm-30 2-9 10-12 17-13 16-12 14-10 13-4 8v2l4-2 12-14 15-20 13-17 14-19 4-6v-2zm-31 1-9 9v2l4-2 6-5 1-3zm14 2-8 8-9 11-9 10-11 14-2 5 4-2 7-7 9-11 14-18 6-8zm-50 4m328 3-3 4-1 3v8l4 11 4 6 10 10 3-1 7-17 1-6-3-5-17-13zm-319 4m-2 1-13 12-8 7-12 11-11 9-9 8 1 3 9-7 14-12 7-7 8-7 16-16zm110 4-6 9-12 26-14 27-10 18-9 19-1 3v7h3l7-10 9-16 12-23 16-35 6-18 1-6zm-136 2-13 11-8 8-1 3 4-1 8-7 5-5 7-8zm-66 4-11 8 3 1 11-7v-2zm15 4-15 9-17 12-3 4 4-1 16-9 16-12 2-3zm16 4-21 14-17 11-14 9-3 3v2l5-1 16-9 16-11 16-12 5-4v-2zm58 1-10 9-14 14-11 9-14 14-5 7v2l4-1 9-7 13-12 19-19 7-8 4-5v-3zm55 1-8 8-11 14-14 18-15 22-3 5v5l4-2 10-11 14-19 13-19 8-13 4-8zm-177 9-25 11-21 11-2 3 7-1 29-14 14-8v-2zm60 10-11 6-12 8-14 10-11 9-3 3v2l6-1 16-10 30-23 2-4zm-57 2-16 8-19 10-11 7-6 5v1l8-1 16-8 17-9 10-7 3-3-1-3zm115 2-12 11-27 27-11 14v2l6-2 14-12 13-12 7-7 9-11 3-6v-4zm229 2v40l2-4v-33zm-174 4-14 18-10 14-14 19-8 13-2 4 1 4 2 1 5-5 7-8 13-18 12-18 9-15 1-2v-7zm-233 7-15 5-30 13-6 4v3l9-1 19-7 22-10 4-4v-2zm116 1-16 12-17 13-10 9-4 4v3h5l13-9 11-9 14-12 7-8v-3zm-59 4-22 11-14 8-10 7-5 5v2l4 1 16-8 18-11 14-10 3-3v-2zm229 1-10 19-15 27-8 16-4 10v7l3 1 5-5 7-10 12-21 8-16 4-11v-16zm-112 10-9 7-10 9-16 16-9 11-3 6 5-1 9-7 13-12 15-16 7-10v-3zm-182 4-26 10-13 7-4 3 1 5 11-3 20-8 15-8 3-3-1-3zm123 3-6 4-10 9-21 14-7 6-2 3v5l3 2 14-10 16-13 14-12 3-4-2-4zm-181 1-26 8-14 7-4 4v2l2 1 11-1 18-6 16-8 4-4-1-3zm122 0-17 8-17 10-11 9v3l8-1 19-9 16-10 5-4 2-5zm175 5-9 9-13 17-10 13-10 14-1 4 2 2h5l7-6 11-14 8-10 9-14 4-8v-6zm109 4-9 27-11 27-3 11 1 2 5-1 8-7 8-11 5-11 1-4v-19l-3-14zm-349 6-16 6-17 9-6 7 1 1h7l20-8 16-8 3-2-1-5zm184 0-13 12-26 26-5 7 1 5 5-1 11-10 8-7 11-12 10-13v-7zm-303 3-26 6-9 3-2 1v5l3 2 12-1 24-6 9-4-1-5-1-1zm61 1-20 6-12 5-6 4v4h10l25-7 10-5 1-6-2-1zm124 0-14 7-22 14-10 9v4l7-1 18-10 17-12 8-7-1-4zm59 0-9 9-17 12-11 8-6 7-1 5 5 1 11-7 13-11 12-11 6-7v-5zm-494 9v3l4 2h6v-3zm180 3-12 2-5 3-1 3 4 5h8l24-5 6-3 1-3-4-2zm485 0-5 5-10 15-11 19-3 8 2 5 5-1 9-9 12-18 5-10 1-9-3-5zm-628 3-3 2 1 3 10 3h7l5-2v-3l-7-3zm336 0-16 5-24 11-2 2 1 5 6 1 16-6 19-10 8-6-1-2zm-233 1-18 2-8 3 1 3 5 2h27l5-3v-5l-2-2zm470 0-4 5-9 13-11 13-8 10-2 7 1 2 6-1 10-9 7-7 9-13 4-8v-11zm-532 3-7 3 2 3 3 1h21l5-3-3-3-3-1zm168 0-17 4-9 5-1 4 2 2 12-1 23-5 5-3 1-4-2-2zm68 0-16 4-16 6-7 5 1 4h9l15-4 15-6 5-4-1-4zm122 1-14 8-19 12-8 8 1 3 8-1 16-8 12-9 5-4 2-3v-6zm57 7-14 9-16 13-7 7-1 4 1 1 7-1 11-7 14-12 8-8 1-5zm60-1-8 5-12 11-9 10-7 11 1 3 6-2 10-8 12-11 8-9 2-4v-5zm-360 3-16 3-7 3 1 4 4 2h16l15-3 4-2v-5l-3-2zm-144 2 5 5 11 2-1-3-10-4zm329 0-16 7-16 9-7 7v3h8l12-5 14-8 8-7v-5zm-289 3-4 2 1 3 11 4 10 2h9l-1-4-5-4-10-3zm40 0-5 1 1 5 6 4 9 2h12l6-2 2-2-1-5-9-3zm127 2-18 4-10 4-1 4 1 2h14l20-4 5-3-1-5-3-2zm56 3-14 4-10 4-4 4 1 3 2 1h8l13-3 14-7 2-2-1-4zm360 0-10 18-7 10-1 5 3 1 11-7 8-8 1-2v-9l-3-8zm-233 3-16 8-18 11-5 3 2 5 7 1 14-7 13-9 7-8-2-4zm-239 5-15 3-4 3 4 3 4 1h15l9-2 3-2-1-4-5-2zm298 0-14 10-14 11-5 7v3l4 1 9-4 11-7 11-10 2-4-1-7zm118 2-6 4-10 10-9 13-2 6 3 1 9-5 12-11 7-8 1-2v-6l-2-2zm-57 1-13 9-15 14-4 6v3h6l11-7 11-9 7-8 1-6zm-404 3-12 3 1 3 8 2h10l7-3-2-4-3-1zm-43 1-2 2 1 1h11l1-2-4-1zm148 0-11 3-8 4-3 3 1 4h9l18-4 5-3 1-1v-5l-2-1zm117 0-15 6-15 8v4l1 1h9l13-5 10-5 6-5-1-4zm-53 2-16 4-15 6-2 2v3h15l15-4 9-4v-5l-3-2zm120 6-16 8-11 7-5 6 1 4h6l16-8 10-8 2-3v-5zm-240 3-8 2-1 4 12 2 16-1 4-1-1-4-5-2zm302 1-13 9-13 12-4 5 1 2 7-1 10-5 10-8 4-5 1-2v-6zm-341 4v2h14v-2zm223 0-16 7-11 7-2 4 1 1h8l13-5 8-5 3-3 1-4-1-2zm239-1-11 9-8 8v2l6-1 10-6 7-6-2-5zm-357 2-16 5-3 4 2 2h14l10-3 4-4-2-4zm293 2-9 6-14 14v3l9-1 10-6 9-8 2-6-1-2zm-235 1-20 6-6 3 1 3 2 1h13l13-4 6-4 1-4-1-1zm-114 7-1 3 6 3h10l6-3v-2l-2-1zm-32 1 1 2h9l1-2zm266 0-16 9-6 5v3h10l12-5 8-6 1-3-2-3zm66 3-16 11-5 5v3l9-2 11-6 5-5 1-2-3-4zm-234 2-10 3-1 4 3 2h7l13-4 2-4-2-1zm118 0-13 4-11 6-2 4 1 1 13-1 16-6 2-2-1-5zm-58 2-18 8v3h9l13-3 4-3-2-4-1-1zm236 0-11 7v3l10-3 6-4v-3zm-339 4-1 2 8 1 3-2-1-1zm223 4-12 6-3 2 1 3 10-1 8-4 2-2-1-4zm-165 4v2h10v-2zm112 2-13 5-3 3h10l10-3 3-2v-3zm-56 1-6 2-2 5h6l11-5v-2z"/>
</svg>
